Fraunces-BlackOpMaxGoofMax.ufo
<glyph name="exclam" format="2">
  <advance width="243"/>
  <unicode hex="0021"/>
  <outline>
    <contour>
      <point x="126" y="748" type="curve" smooth="yes"/>
      <point x="210" y="748"/>
      <point x="248" y="710"/>
      <point x="248" y="646" type="curve" smooth="yes"/>
      <point x="248" y="618"/>
      <point x="245" y="575"/>
      <point x="239" y="541" type="curve" smooth="yes"/>
      <point x="180" y="278" type="line" smooth="yes"/>
      <point x="175" y="245"/>
      <point x="162" y="228"/>
      <point x="131" y="228" type="curve" smooth="yes"/>
      <point x="101" y="228"/>
      <point x="89" y="244"/>
      <point x="82" y="279" type="curve" smooth="yes"/>
      <point x="18" y="550" type="line" smooth="yes"/>
      <point x="12" y="592"/>
      <point x="10" y="619"/>
      <point x="10" y="649" type="curve" smooth="yes"/>
      <point x="10" y="708"/>
      <point x="68" y="748"/>
    </contour>
    <component base="period" xScale="1.0621611111111113" yScale="1.0621611111111113" xOffset="-15" yOffset="1"/>
  </outline>
</glyph>
<glyph name="ampersand" format="2">
  <advance width="719"/>
  <unicode hex="0026"/>
  <outline>
    <contour>
      <point x="320" y="619" type="curve" smooth="yes"/>
      <point x="286" y="619"/>
      <point x="263" y="573"/>
      <point x="263" y="511" type="curve" smooth="yes"/>
      <point x="263" y="448"/>
      <point x="296" y="404"/>
      <point x="346" y="382" type="curve" smooth="yes"/>
      <point x="401" y="358"/>
      <point x="423" y="329"/>
      <point x="472" y="287" type="curve" smooth="yes"/>
      <point x="685" y="84" type="line" smooth="yes"/>
      <point x="695" y="78"/>
      <point x="692" y="73"/>
      <point x="694" y="73" type="curve" smooth="yes"/>
      <point x="728" y="66"/>
      <point x="738" y="59"/>
      <point x="738" y="37" type="curve" smooth="yes"/>
      <point x="738" y="13"/>
      <point x="723" y="1"/>
      <point x="696" y="1" type="curve" smooth="yes"/>
      <point x="558" y="1" type="line" smooth="yes"/>
      <point x="531" y="1"/>
      <point x="518" y="14"/>
      <point x="499" y="31" type="curve" smooth="yes"/>
      <point x="285" y="238" type="line" smooth="yes"/>
      <point x="243" y="277"/>
      <point x="226" y="306"/>
      <point x="178" y="324" type="curve" smooth="yes"/>
      <point x="115" y="350"/>
      <point x="73" y="404"/>
      <point x="73" y="477" type="curve" smooth="yes"/>
      <point x="73" y="595"/>
      <point x="176" y="691"/>
      <point x="364" y="691" type="curve" smooth="yes"/>
      <point x="496" y="691"/>
      <point x="576" y="621"/>
      <point x="576" y="519" type="curve" smooth="yes"/>
      <point x="576" y="421"/>
      <point x="480" y="362"/>
      <point x="286" y="337" type="curve"/>
      <point x="290" y="379" type="line"/>
      <point x="347" y="397"/>
      <point x="373" y="449"/>
      <point x="373" y="522" type="curve" smooth="yes"/>
      <point x="373" y="582"/>
      <point x="348" y="619"/>
    </contour>
    <contour>
      <point x="250" y="284" type="line"/>
      <point x="218" y="283"/>
      <point x="189" y="238"/>
      <point x="189" y="190" type="curve" smooth="yes"/>
      <point x="189" y="123"/>
      <point x="227" y="79"/>
      <point x="283" y="79" type="curve" smooth="yes"/>
      <point x="337" y="79"/>
      <point x="380" y="88"/>
      <point x="416" y="142" type="curve"/>
      <point x="484" y="103" type="line"/>
      <point x="411" y="13"/>
      <point x="328" y="-14"/>
      <point x="222" y="-14" type="curve" smooth="yes"/>
      <point x="74" y="-14"/>
      <point x="-6" y="66"/>
      <point x="-6" y="159" type="curve" smooth="yes"/>
      <point x="-6" y="254"/>
      <point x="107" y="330"/>
      <point x="250" y="330" type="curve"/>
    </contour>
    <contour>
      <point x="517" y="195" type="line"/>
      <point x="515" y="176" type="line" smooth="yes"/>
      <point x="537" y="197"/>
      <point x="551" y="235"/>
      <point x="551" y="252" type="curve" smooth="yes"/>
      <point x="551" y="285"/>
      <point x="544" y="306"/>
      <point x="530" y="313" type="curve" smooth="yes"/>
      <point x="520" y="318" type="line" smooth="yes"/>
      <point x="508" y="327"/>
      <point x="499" y="344"/>
      <point x="499" y="356" type="curve" smooth="yes"/>
      <point x="499" y="378"/>
      <point x="511" y="388"/>
      <point x="532" y="388" type="curve" smooth="yes"/>
      <point x="670" y="388" type="line" smooth="yes"/>
      <point x="703" y="388"/>
      <point x="719" y="376"/>
      <point x="719" y="346" type="curve" smooth="yes"/>
      <point x="719" y="325"/>
      <point x="710" y="305"/>
      <point x="681" y="292" type="curve" smooth="yes"/>
      <point x="666" y="289"/>
      <point x="653" y="269"/>
      <point x="613" y="218" type="curve" smooth="yes"/>
      <point x="569" y="174" type="line"/>
    </contour>
  </outline>
</glyph>
<glyph name="comma" format="2">
  <advance width="293"/>
  <unicode hex="002C"/>
  <outline>
    <contour>
      <point x="91" y="4" type="curve" smooth="yes"/>
      <point x="138" y="-13" type="line" smooth="yes"/>
      <point x="168" y="-27"/>
      <point x="177" y="-50"/>
      <point x="177" y="-88" type="curve" smooth="yes"/>
      <point x="177" y="-113"/>
      <point x="123" y="-137"/>
      <point x="58" y="-144" type="curve" smooth="yes"/>
      <point x="25" y="-146"/>
      <point x="14" y="-165"/>
      <point x="14" y="-184" type="curve" smooth="yes"/>
      <point x="14" y="-207"/>
      <point x="27" y="-223"/>
      <point x="56" y="-223" type="curve" smooth="yes"/>
      <point x="171" y="-223"/>
      <point x="292" y="-136"/>
      <point x="292" y="-5" type="curve" smooth="yes"/>
      <point x="292" y="141"/>
      <point x="219" y="217"/>
      <point x="140" y="217" type="curve" smooth="yes"/>
      <point x="75" y="217"/>
      <point x="25" y="172"/>
      <point x="25" y="112" type="curve" smooth="yes"/>
      <point x="25" y="69"/>
      <point x="42" y="28"/>
    </contour>
  </outline>
</glyph>
<glyph name="period" format="2">
  <advance width="265"/>
  <unicode hex="002E"/>
  <outline>
    <contour>
      <point x="129" y="-14" type="curve" smooth="yes"/>
      <point x="195" y="-14"/>
      <point x="246" y="41"/>
      <point x="246" y="105" type="curve" smooth="yes"/>
      <point x="246" y="169"/>
      <point x="195" y="222"/>
      <point x="129" y="222" type="curve" smooth="yes"/>
      <point x="64" y="222"/>
      <point x="13" y="169"/>
      <point x="13" y="105" type="curve" smooth="yes"/>
      <point x="13" y="41"/>
      <point x="64" y="-14"/>
    </contour>
  </outline>
</glyph>
<glyph name="question" format="2">
  <advance width="413"/>
  <unicode hex="003F"/>
  <outline>
    <contour>
      <point x="104" y="300" type="line" smooth="yes"/>
      <point x="103" y="307"/>
      <point x="103" y="309"/>
      <point x="103" y="313" type="curve" smooth="yes"/>
      <point x="103" y="334"/>
      <point x="112" y="358"/>
      <point x="146" y="370" type="curve" smooth="yes"/>
      <point x="188" y="384" type="line" smooth="yes"/>
      <point x="223" y="392"/>
      <point x="247" y="456"/>
      <point x="247" y="515" type="curve" smooth="yes"/>
      <point x="247" y="596"/>
      <point x="221" y="634"/>
      <point x="180" y="634" type="curve" smooth="yes"/>
      <point x="151" y="634"/>
      <point x="135" y="611"/>
      <point x="135" y="581" type="curve" smooth="yes"/>
      <point x="135" y="528" type="line" smooth="yes"/>
      <point x="135" y="482"/>
      <point x="95" y="449"/>
      <point x="45" y="449" type="curve" smooth="yes"/>
      <point x="-10" y="449"/>
      <point x="-44" y="484"/>
      <point x="-44" y="546" type="curve" smooth="yes"/>
      <point x="-44" y="629"/>
      <point x="66" y="714"/>
      <point x="196" y="714" type="curve" smooth="yes"/>
      <point x="354" y="714"/>
      <point x="445" y="650"/>
      <point x="445" y="523" type="curve" smooth="yes"/>
      <point x="445" y="428"/>
      <point x="375" y="367"/>
      <point x="251" y="310" type="curve" smooth="yes"/>
      <point x="250" y="310" type="line" smooth="yes"/>
      <point x="224" y="299"/>
      <point x="209" y="281"/>
      <point x="197" y="237" type="curve" smooth="yes"/>
      <point x="197" y="258" type="line" smooth="yes"/>
      <point x="189" y="230"/>
      <point x="176" y="215"/>
      <point x="151" y="215" type="curve" smooth="yes"/>
      <point x="132" y="215"/>
      <point x="113" y="235"/>
      <point x="107" y="273" type="curve" smooth="yes"/>
    </contour>
    <component base="period" xScale="1.0621611111111113" yScale="1.0621611111111113" xOffset="10" yOffset="-2"/>
  </outline>
</glyph>
<glyph name="A" format="2">
  <advance width="717"/>
  <unicode hex="0041"/>
  <anchor x="359" y="732" name="center"/>
  <outline>
    <contour>
      <point x="167" y="312" type="line"/>
      <point x="166" y="234" type="line"/>
      <point x="459" y="234" type="line"/>
      <point x="458" y="312" type="line"/>
    </contour>
    <contour>
      <point x="235" y="38" type="curve" smooth="yes"/>
      <point x="235" y="55"/>
      <point x="226" y="69"/>
      <point x="209" y="77" type="curve" smooth="yes"/>
      <point x="186" y="88" type="line" smooth="yes"/>
      <point x="150" y="105"/>
      <point x="139" y="114"/>
      <point x="158" y="173" type="curve" smooth="yes"/>
      <point x="296" y="623" type="line" smooth="yes"/>
      <point x="277" y="612" type="line"/>
      <point x="426" y="134" type="line" smooth="yes"/>
      <point x="435" y="102"/>
      <point x="441" y="90"/>
      <point x="421" y="82" type="curve" smooth="yes"/>
      <point x="410" y="78" type="line" smooth="yes"/>
      <point x="393" y="70"/>
      <point x="382" y="59"/>
      <point x="382" y="38" type="curve" smooth="yes"/>
      <point x="382" y="16"/>
      <point x="396" y="0"/>
      <point x="418" y="0" type="curve" smooth="yes"/>
      <point x="689" y="0" type="line" smooth="yes"/>
      <point x="711" y="0"/>
      <point x="726" y="16"/>
      <point x="726" y="38" type="curve" smooth="yes"/>
      <point x="726" y="57"/>
      <point x="721" y="64"/>
      <point x="695" y="85" type="curve" smooth="yes"/>
      <point x="673" y="102"/>
      <point x="667" y="126"/>
      <point x="656" y="158" type="curve" smooth="yes"/>
      <point x="522" y="573" type="line" smooth="yes"/>
      <point x="513" y="600"/>
      <point x="515" y="615"/>
      <point x="528" y="621" type="curve" smooth="yes"/>
      <point x="547" y="631"/>
      <point x="556" y="643"/>
      <point x="556" y="662" type="curve" smooth="yes"/>
      <point x="556" y="685"/>
      <point x="541" y="700"/>
      <point x="519" y="700" type="curve" smooth="yes"/>
      <point x="192" y="700" type="line" smooth="yes"/>
      <point x="170" y="700"/>
      <point x="155" y="685"/>
      <point x="155" y="662" type="curve" smooth="yes"/>
      <point x="155" y="645"/>
      <point x="163" y="633"/>
      <point x="178" y="624" type="curve" smooth="yes"/>
      <point x="197" y="612"/>
      <point x="201" y="600"/>
      <point x="191" y="567" type="curve" smooth="yes"/>
      <point x="63" y="152" type="line" smooth="yes"/>
      <point x="50" y="112"/>
      <point x="45" y="99"/>
      <point x="21" y="89" type="curve" smooth="yes"/>
      <point x="0" y="79" type="line" smooth="yes"/>
      <point x="-18" y="72"/>
      <point x="-29" y="59"/>
      <point x="-29" y="38" type="curve" smooth="yes"/>
      <point x="-29" y="15"/>
      <point x="-14" y="0"/>
      <point x="7" y="0" type="curve" smooth="yes"/>
      <point x="199" y="0" type="line" smooth="yes"/>
      <point x="221" y="0"/>
      <point x="235" y="15"/>
    </contour>
  </outline>
</glyph>
<glyph name="B" format="2">
  <advance width="726"/>
  <unicode hex="0042"/>
  <outline>
    <contour>
      <point x="717" y="170" type="curve" smooth="yes"/>
      <point x="717" y="273"/>
      <point x="609" y="342"/>
      <point x="451" y="342" type="curve"/>
      <point x="443" y="324" type="line"/>
      <point x="592" y="324"/>
      <point x="677" y="393"/>
      <point x="677" y="490" type="curve" smooth="yes"/>
      <point x="677" y="616"/>
      <point x="562" y="700"/>
      <point x="372" y="700" type="curve" smooth="yes"/>
      <point x="51" y="700" type="line" smooth="yes"/>
      <point x="29" y="700"/>
      <point x="15" y="684"/>
      <point x="15" y="662" type="curve" smooth="yes"/>
      <point x="15" y="639"/>
      <point x="27" y="625"/>
      <point x="51" y="619" type="curve" smooth="yes"/>
      <point x="76" y="615" type="line" smooth="yes"/>
      <point x="93" y="611"/>
      <point x="101" y="601"/>
      <point x="101" y="580" type="curve" smooth="yes"/>
      <point x="101" y="123" type="line" smooth="yes"/>
      <point x="101" y="100"/>
      <point x="93" y="89"/>
      <point x="76" y="85" type="curve" smooth="yes"/>
      <point x="51" y="81" type="line" smooth="yes"/>
      <point x="27" y="75"/>
      <point x="15" y="61"/>
      <point x="15" y="38" type="curve" smooth="yes"/>
      <point x="15" y="16"/>
      <point x="29" y="0"/>
      <point x="51" y="0" type="curve" smooth="yes"/>
      <point x="448" y="0" type="line" smooth="yes"/>
      <point x="630" y="0"/>
      <point x="717" y="76"/>
    </contour>
    <contour>
      <point x="382" y="293" type="line" smooth="yes"/>
      <point x="455" y="293"/>
      <point x="498" y="249"/>
      <point x="498" y="177" type="curve" smooth="yes"/>
      <point x="498" y="107"/>
      <point x="464" y="65"/>
      <point x="411" y="65" type="curve" smooth="yes"/>
      <point x="375" y="65" type="line" smooth="yes"/>
      <point x="345" y="65"/>
      <point x="320" y="84"/>
      <point x="320" y="122" type="curve" smooth="yes"/>
      <point x="320" y="618" type="line"/>
      <point x="331" y="618" type="line" smooth="yes"/>
      <point x="416" y="618"/>
      <point x="469" y="564"/>
      <point x="469" y="475" type="curve" smooth="yes"/>
      <point x="469" y="391"/>
      <point x="429" y="353"/>
      <point x="365" y="353" type="curve" smooth="yes"/>
      <point x="264" y="353" type="line"/>
      <point x="264" y="293" type="line"/>
    </contour>
  </outline>
</glyph>
<glyph name="C" format="2">
  <advance width="671"/>
  <unicode hex="0043"/>
  <anchor x="343" y="775" name="center"/>
  <outline>
    <contour>
      <point x="670" y="225" type="curve" smooth="yes"/>
      <point x="670" y="249"/>
      <point x="656" y="270"/>
      <point x="646" y="270" type="curve" smooth="yes"/>
      <point x="632" y="270"/>
      <point x="622" y="271"/>
      <point x="603" y="238" type="curve" smooth="yes"/>
      <point x="579" y="173"/>
      <point x="506" y="131"/>
      <point x="433" y="131" type="curve" smooth="yes"/>
      <point x="312" y="131"/>
      <point x="229" y="228"/>
      <point x="229" y="377" type="curve" smooth="yes"/>
      <point x="229" y="526"/>
      <point x="284" y="613"/>
      <point x="361" y="613" type="curve" smooth="yes"/>
      <point x="437" y="613"/>
      <point x="509" y="569"/>
      <point x="554" y="475" type="curve" smooth="yes"/>
      <point x="575" y="438"/>
      <point x="597" y="431"/>
      <point x="616" y="431" type="curve" smooth="yes"/>
      <point x="644" y="431"/>
      <point x="659" y="449"/>
      <point x="659" y="469" type="curve" smooth="yes"/>
      <point x="659" y="483"/>
      <point x="659" y="491"/>
      <point x="650" y="524" type="curve" smooth="yes"/>
      <point x="621" y="637" type="line" smooth="yes"/>
      <point x="603" y="697"/>
      <point x="589" y="717"/>
      <point x="561" y="717" type="curve" smooth="yes"/>
      <point x="528" y="717"/>
      <point x="517" y="692"/>
      <point x="481" y="692" type="curve" smooth="yes"/>
      <point x="465" y="692"/>
      <point x="434" y="713"/>
      <point x="382" y="713" type="curve" smooth="yes"/>
      <point x="174" y="713"/>
      <point x="22" y="558"/>
      <point x="22" y="338" type="curve" smooth="yes"/>
      <point x="22" y="130"/>
      <point x="149" y="-15"/>
      <point x="348" y="-15" type="curve" smooth="yes"/>
      <point x="531" y="-15"/>
      <point x="670" y="112"/>
    </contour>
  </outline>
</glyph>
<glyph name="D" format="2">
  <advance width="775"/>
  <unicode hex="0044"/>
  <outline>
    <contour>
      <point x="10" y="46" type="curve" smooth="yes"/>
      <point x="10" y="15"/>
      <point x="23" y="0"/>
      <point x="53" y="0" type="curve" smooth="yes"/>
      <point x="386" y="0" type="line" smooth="yes"/>
      <point x="598" y="0"/>
      <point x="758" y="135"/>
      <point x="758" y="317" type="curve" smooth="yes"/>
      <point x="758" y="542"/>
      <point x="575" y="700"/>
      <point x="339" y="700" type="curve" smooth="yes"/>
      <point x="60" y="700" type="line" smooth="yes"/>
      <point x="24" y="700"/>
      <point x="10" y="685"/>
      <point x="10" y="656" type="curve" smooth="yes"/>
      <point x="10" y="628"/>
      <point x="18" y="614"/>
      <point x="32" y="609" type="curve" smooth="yes"/>
      <point x="67" y="601" type="line" smooth="yes"/>
      <point x="89" y="595"/>
      <point x="100" y="585"/>
      <point x="100" y="562" type="curve" smooth="yes"/>
      <point x="100" y="139" type="line" smooth="yes"/>
      <point x="100" y="116"/>
      <point x="88" y="106"/>
      <point x="64" y="99" type="curve" smooth="yes"/>
      <point x="49" y="96" type="line" smooth="yes"/>
      <point x="26" y="89"/>
      <point x="10" y="74"/>
    </contour>
    <contour>
      <point x="388" y="93" type="curve" smooth="yes"/>
      <point x="378" y="93" type="line" smooth="yes"/>
      <point x="335" y="93"/>
      <point x="311" y="117"/>
      <point x="311" y="160" type="curve" smooth="yes"/>
      <point x="311" y="564" type="line" smooth="yes"/>
      <point x="311" y="595"/>
      <point x="322" y="610"/>
      <point x="352" y="610" type="curve" smooth="yes"/>
      <point x="350" y="610" type="line" smooth="yes"/>
      <point x="468" y="610"/>
      <point x="553" y="492"/>
      <point x="553" y="325" type="curve" smooth="yes"/>
      <point x="553" y="188"/>
      <point x="481" y="93"/>
    </contour>
  </outline>
</glyph>
<glyph name="E" format="2">
  <advance width="667"/>
  <unicode hex="0045"/>
  <anchor x="371" y="-53" name="right"/>
  <outline>
    <contour>
      <point x="242" y="392" type="line"/>
      <point x="242" y="321" type="line"/>
      <point x="386" y="321" type="line" smooth="yes"/>
      <point x="440" y="321"/>
      <point x="455" y="311"/>
      <point x="487" y="269" type="curve" smooth="yes"/>
      <point x="501" y="251"/>
      <point x="516" y="246"/>
      <point x="533" y="250" type="curve" smooth="yes"/>
      <point x="554" y="255"/>
      <point x="567" y="275"/>
      <point x="560" y="301" type="curve" smooth="yes"/>
      <point x="524" y="435" type="line" smooth="yes"/>
      <point x="515" y="470"/>
      <point x="502" y="482"/>
      <point x="482" y="482" type="curve" smooth="yes"/>
      <point x="464" y="482"/>
      <point x="452" y="473"/>
      <point x="444" y="454" type="curve" smooth="yes"/>
      <point x="430" y="409"/>
      <point x="421" y="392"/>
      <point x="376" y="392" type="curve" smooth="yes"/>
    </contour>
    <contour>
      <point x="15" y="662" type="curve" smooth="yes"/>
      <point x="15" y="639"/>
      <point x="27" y="625"/>
      <point x="51" y="619" type="curve" smooth="yes"/>
      <point x="76" y="615" type="line" smooth="yes"/>
      <point x="93" y="611"/>
      <point x="101" y="601"/>
      <point x="101" y="580" type="curve" smooth="yes"/>
      <point x="101" y="120" type="line" smooth="yes"/>
      <point x="101" y="99"/>
      <point x="93" y="89"/>
      <point x="76" y="85" type="curve" smooth="yes"/>
      <point x="51" y="81" type="line" smooth="yes"/>
      <point x="27" y="75"/>
      <point x="15" y="61"/>
      <point x="15" y="38" type="curve" smooth="yes"/>
      <point x="15" y="16"/>
      <point x="29" y="0"/>
      <point x="51" y="0" type="curve" smooth="yes"/>
      <point x="467" y="0" type="line" smooth="yes"/>
      <point x="512" y="0"/>
      <point x="535" y="-16"/>
      <point x="561" y="-16" type="curve" smooth="yes"/>
      <point x="593" y="-16"/>
      <point x="605" y="1"/>
      <point x="617" y="40" type="curve" smooth="yes"/>
      <point x="662" y="214" type="line" smooth="yes"/>
      <point x="669" y="242"/>
      <point x="658" y="262"/>
      <point x="634" y="267" type="curve" smooth="yes"/>
      <point x="613" y="271"/>
      <point x="596" y="263"/>
      <point x="586" y="240" type="curve" smooth="yes"/>
      <point x="521" y="110"/>
      <point x="479" y="82"/>
      <point x="410" y="82" type="curve" smooth="yes"/>
      <point x="367" y="82" type="line" smooth="yes"/>
      <point x="342" y="82"/>
      <point x="328" y="93"/>
      <point x="328" y="122" type="curve" smooth="yes"/>
      <point x="328" y="618" type="line"/>
      <point x="400" y="618" type="line" smooth="yes"/>
      <point x="459" y="618"/>
      <point x="493" y="597"/>
      <point x="559" y="481" type="curve" smooth="yes"/>
      <point x="571" y="456"/>
      <point x="590" y="452"/>
      <point x="607" y="455" type="curve" smooth="yes"/>
      <point x="629" y="459"/>
      <point x="642" y="475"/>
      <point x="638" y="497" type="curve" smooth="yes"/>
      <point x="602" y="660" type="line" smooth="yes"/>
      <point x="594" y="700"/>
      <point x="579" y="716"/>
      <point x="547" y="716" type="curve" smooth="yes"/>
      <point x="521" y="716"/>
      <point x="498" y="700"/>
      <point x="453" y="700" type="curve" smooth="yes"/>
      <point x="51" y="700" type="line" smooth="yes"/>
      <point x="29" y="700"/>
      <point x="15" y="684"/>
    </contour>
  </outline>
</glyph>
<glyph name="F" format="2">
  <advance width="612"/>
  <unicode hex="0046"/>
  <outline>
    <contour>
      <point x="435" y="700" type="curve" smooth="yes"/>
      <point x="51" y="700" type="line" smooth="yes"/>
      <point x="29" y="700"/>
      <point x="15" y="684"/>
      <point x="15" y="662" type="curve" smooth="yes"/>
      <point x="15" y="639"/>
      <point x="27" y="625"/>
      <point x="51" y="619" type="curve" smooth="yes"/>
      <point x="76" y="615" type="line" smooth="yes"/>
      <point x="93" y="611"/>
      <point x="101" y="601"/>
      <point x="101" y="580" type="curve" smooth="yes"/>
      <point x="101" y="120" type="line" smooth="yes"/>
      <point x="101" y="99"/>
      <point x="93" y="89"/>
      <point x="76" y="85" type="curve" smooth="yes"/>
      <point x="51" y="81" type="line" smooth="yes"/>
      <point x="27" y="75"/>
      <point x="15" y="61"/>
      <point x="15" y="38" type="curve" smooth="yes"/>
      <point x="15" y="16"/>
      <point x="29" y="0"/>
      <point x="51" y="0" type="curve" smooth="yes"/>
      <point x="408" y="0" type="line" smooth="yes"/>
      <point x="427" y="0"/>
      <point x="445" y="13"/>
      <point x="445" y="37" type="curve" smooth="yes"/>
      <point x="445" y="55"/>
      <point x="433" y="72"/>
      <point x="413" y="79" type="curve" smooth="yes"/>
      <point x="365" y="90" type="line" smooth="yes"/>
      <point x="343" y="97"/>
      <point x="328" y="110"/>
      <point x="328" y="137" type="curve" smooth="yes"/>
      <point x="328" y="618" type="line"/>
      <point x="386" y="618" type="line" smooth="yes"/>
      <point x="446" y="618"/>
      <point x="484" y="594"/>
      <point x="542" y="486" type="curve" smooth="yes"/>
      <point x="553" y="461"/>
      <point x="572" y="457"/>
      <point x="590" y="460" type="curve" smooth="yes"/>
      <point x="612" y="464"/>
      <point x="625" y="480"/>
      <point x="621" y="502" type="curve" smooth="yes"/>
      <point x="585" y="660" type="line" smooth="yes"/>
      <point x="577" y="700"/>
      <point x="561" y="716"/>
      <point x="530" y="716" type="curve" smooth="yes"/>
      <point x="503" y="716"/>
      <point x="481" y="700"/>
    </contour>
    <contour>
      <point x="242" y="366" type="line"/>
      <point x="242" y="296" type="line"/>
      <point x="393" y="296" type="line" smooth="yes"/>
      <point x="446" y="296"/>
      <point x="460" y="285"/>
      <point x="492" y="244" type="curve" smooth="yes"/>
      <point x="505" y="225"/>
      <point x="520" y="221"/>
      <point x="537" y="225" type="curve" smooth="yes"/>
      <point x="559" y="229"/>
      <point x="571" y="249"/>
      <point x="564" y="275" type="curve" smooth="yes"/>
      <point x="534" y="410" type="line" smooth="yes"/>
      <point x="525" y="442"/>
      <point x="512" y="453"/>
      <point x="492" y="453" type="curve" smooth="yes"/>
      <point x="474" y="453"/>
      <point x="462" y="444"/>
      <point x="454" y="425" type="curve" smooth="yes"/>
      <point x="440" y="381"/>
      <point x="418" y="366"/>
      <point x="369" y="366" type="curve" smooth="yes"/>
    </contour>
  </outline>
</glyph>
<glyph name="G" format="2">
  <advance width="773"/>
  <unicode hex="0047"/>
  <outline>
    <contour>
      <point x="704" y="38" type="curve" smooth="yes"/>
      <point x="704" y="251" type="line" smooth="yes"/>
      <point x="704" y="272"/>
      <point x="714" y="280"/>
      <point x="726" y="286" type="curve" smooth="yes"/>
      <point x="738" y="291" type="line" smooth="yes"/>
      <point x="755" y="300"/>
      <point x="765" y="312"/>
      <point x="765" y="333" type="curve" smooth="yes"/>
      <point x="765" y="355"/>
      <point x="750" y="371"/>
      <point x="729" y="371" type="curve" smooth="yes"/>
      <point x="442" y="371" type="line" smooth="yes"/>
      <point x="420" y="371"/>
      <point x="406" y="355"/>
      <point x="406" y="333" type="curve" smooth="yes"/>
      <point x="406" y="310"/>
      <point x="418" y="296"/>
      <point x="442" y="290" type="curve" smooth="yes"/>
      <point x="467" y="286" type="line" smooth="yes"/>
      <point x="484" y="282"/>
      <point x="492" y="274"/>
      <point x="492" y="256" type="curve" smooth="yes"/>
      <point x="492" y="150" type="line" smooth="yes"/>
      <point x="492" y="117"/>
      <point x="470" y="95"/>
      <point x="432" y="95" type="curve" smooth="yes"/>
      <point x="341" y="95"/>
      <point x="261" y="194"/>
      <point x="261" y="385" type="curve" smooth="yes"/>
      <point x="261" y="541"/>
      <point x="328" y="631"/>
      <point x="430" y="631" type="curve" smooth="yes"/>
      <point x="504" y="631"/>
      <point x="571" y="591"/>
      <point x="631" y="483" type="curve" smooth="yes"/>
      <point x="647" y="459"/>
      <point x="664" y="450"/>
      <point x="683" y="450" type="curve" smooth="yes"/>
      <point x="709" y="451"/>
      <point x="726" y="470"/>
      <point x="718" y="500" type="curve" smooth="yes"/>
      <point x="688" y="652" type="line" smooth="yes"/>
      <point x="677" y="695"/>
      <point x="664" y="712"/>
      <point x="637" y="712" type="curve" smooth="yes"/>
      <point x="609" y="712"/>
      <point x="581" y="685"/>
      <point x="552" y="685" type="curve" smooth="yes"/>
      <point x="534" y="685"/>
      <point x="491" y="713"/>
      <point x="407" y="713" type="curve" smooth="yes"/>
      <point x="169" y="713"/>
      <point x="17" y="558"/>
      <point x="17" y="337" type="curve" smooth="yes"/>
      <point x="17" y="123"/>
      <point x="152" y="-14"/>
      <point x="339" y="-14" type="curve" smooth="yes"/>
      <point x="428" y="-14"/>
      <point x="486" y="37"/>
      <point x="517" y="37" type="curve" smooth="yes"/>
      <point x="558" y="37"/>
      <point x="615" y="-14"/>
      <point x="654" y="-14" type="curve" smooth="yes"/>
      <point x="691" y="-14"/>
      <point x="704" y="7"/>
    </contour>
  </outline>
</glyph>
<glyph name="H" format="2">
  <advance width="862"/>
  <unicode hex="0048"/>
  <outline>
    <contour>
      <point x="204" y="375" type="line"/>
      <point x="204" y="293" type="line"/>
      <point x="627" y="293" type="line"/>
      <point x="627" y="375" type="line"/>
    </contour>
    <component base="I" xOffset="-1"/>
    <component base="I" xOffset="432"/>
  </outline>
</glyph>
<glyph name="I" format="2">
  <advance width="429"/>
  <unicode hex="0049"/>
  <outline>
    <contour>
      <point x="328" y="120" type="curve" smooth="yes"/>
      <point x="328" y="580" type="line" smooth="yes"/>
      <point x="328" y="601"/>
      <point x="337" y="611"/>
      <point x="353" y="615" type="curve" smooth="yes"/>
      <point x="379" y="619" type="line" smooth="yes"/>
      <point x="402" y="625"/>
      <point x="415" y="639"/>
      <point x="415" y="662" type="curve" smooth="yes"/>
      <point x="415" y="684"/>
      <point x="400" y="700"/>
      <point x="378" y="700" type="curve" smooth="yes"/>
      <point x="51" y="700" type="line" smooth="yes"/>
      <point x="29" y="700"/>
      <point x="15" y="684"/>
      <point x="15" y="662" type="curve" smooth="yes"/>
      <point x="15" y="639"/>
      <point x="27" y="625"/>
      <point x="51" y="619" type="curve" smooth="yes"/>
      <point x="76" y="615" type="line" smooth="yes"/>
      <point x="93" y="611"/>
      <point x="101" y="601"/>
      <point x="101" y="580" type="curve" smooth="yes"/>
      <point x="101" y="120" type="line" smooth="yes"/>
      <point x="101" y="99"/>
      <point x="93" y="89"/>
      <point x="76" y="85" type="curve" smooth="yes"/>
      <point x="51" y="81" type="line" smooth="yes"/>
      <point x="27" y="75"/>
      <point x="15" y="61"/>
      <point x="15" y="38" type="curve" smooth="yes"/>
      <point x="15" y="16"/>
      <point x="29" y="0"/>
      <point x="51" y="0" type="curve" smooth="yes"/>
      <point x="378" y="0" type="line" smooth="yes"/>
      <point x="400" y="0"/>
      <point x="415" y="16"/>
      <point x="415" y="38" type="curve" smooth="yes"/>
      <point x="415" y="61"/>
      <point x="402" y="75"/>
      <point x="379" y="81" type="curve" smooth="yes"/>
      <point x="353" y="85" type="line" smooth="yes"/>
      <point x="337" y="89"/>
      <point x="328" y="99"/>
    </contour>
  </outline>
</glyph>
<glyph name="J" format="2">
  <advance width="494"/>
  <unicode hex="004A"/>
  <anchor x="259" y="732" name="center"/>
  <outline>
    <contour>
      <point x="499" y="144" type="curve" smooth="yes"/>
      <point x="499" y="181"/>
      <point x="479" y="228"/>
      <point x="457" y="250" type="curve" smooth="yes"/>
      <point x="435" y="271"/>
      <point x="425" y="321"/>
      <point x="425" y="384" type="curve" smooth="yes"/>
      <point x="424" y="544" type="line" smooth="yes"/>
      <point x="424" y="578"/>
      <point x="439" y="592"/>
      <point x="465" y="601" type="curve" smooth="yes"/>
      <point x="474" y="605" type="line" smooth="yes"/>
      <point x="493" y="616"/>
      <point x="504" y="626"/>
      <point x="504" y="656" type="curve" smooth="yes"/>
      <point x="504" y="687"/>
      <point x="492" y="701"/>
      <point x="462" y="701" type="curve" smooth="yes"/>
      <point x="149" y="701" type="line" smooth="yes"/>
      <point x="133" y="701"/>
      <point x="114" y="687"/>
      <point x="114" y="656" type="curve" smooth="yes"/>
      <point x="114" y="628"/>
      <point x="128" y="612"/>
      <point x="152" y="605" type="curve" smooth="yes"/>
      <point x="169" y="603" type="line" smooth="yes"/>
      <point x="200" y="596"/>
      <point x="213" y="570"/>
      <point x="213" y="520" type="curve" smooth="yes"/>
      <point x="213" y="385" type="line" smooth="yes"/>
      <point x="213" y="294"/>
      <point x="224" y="233"/>
      <point x="257" y="187" type="curve" smooth="yes"/>
      <point x="280" y="158"/>
      <point x="299" y="151"/>
      <point x="299" y="119" type="curve" smooth="yes"/>
      <point x="299" y="76"/>
      <point x="276" y="51"/>
      <point x="239" y="51" type="curve" smooth="yes"/>
      <point x="196" y="51"/>
      <point x="179" y="82"/>
      <point x="179" y="129" type="curve" smooth="yes"/>
      <point x="179" y="151" type="line" smooth="yes"/>
      <point x="179" y="220"/>
      <point x="136" y="259"/>
      <point x="85" y="259" type="curve" smooth="yes"/>
      <point x="17" y="259"/>
      <point x="-20" y="208"/>
      <point x="-20" y="131" type="curve" smooth="yes"/>
      <point x="-20" y="43"/>
      <point x="63" y="-21"/>
      <point x="213" y="-21" type="curve" smooth="yes"/>
      <point x="388" y="-21"/>
      <point x="499" y="44"/>
    </contour>
  </outline>
</glyph>
<glyph name="K" format="2">
  <advance width="807"/>
  <unicode hex="004B"/>
  <outline>
    <contour>
      <point x="209" y="259" type="line"/>
      <point x="240" y="185" type="line"/>
      <point x="547" y="429" type="line" smooth="yes"/>
      <point x="646" y="521"/>
      <point x="705" y="576"/>
      <point x="735" y="580" type="curve" smooth="yes"/>
      <point x="764" y="587"/>
      <point x="774" y="609"/>
      <point x="773" y="644" type="curve" smooth="yes"/>
      <point x="772" y="675"/>
      <point x="750" y="700"/>
      <point x="713" y="700" type="curve" smooth="yes"/>
      <point x="464" y="700" type="line" smooth="yes"/>
      <point x="435" y="700"/>
      <point x="413" y="685"/>
      <point x="413" y="655" type="curve" smooth="yes"/>
      <point x="413" y="643"/>
      <point x="413" y="627"/>
      <point x="443" y="612" type="curve" smooth="yes"/>
      <point x="451" y="612" type="line" smooth="yes"/>
      <point x="472" y="603"/>
      <point x="481" y="578"/>
      <point x="481" y="557" type="curve" smooth="yes"/>
      <point x="481" y="507"/>
      <point x="456" y="461"/>
      <point x="407" y="412" type="curve" smooth="yes"/>
    </contour>
    <contour>
      <point x="360" y="377" type="line"/>
      <point x="467" y="158" type="line" smooth="yes"/>
      <point x="475" y="144"/>
      <point x="482" y="136"/>
      <point x="482" y="121" type="curve" smooth="yes"/>
      <point x="482" y="110"/>
      <point x="478" y="107"/>
      <point x="460" y="95" type="curve" smooth="yes"/>
      <point x="445" y="84"/>
      <point x="439" y="71"/>
      <point x="439" y="45" type="curve" smooth="yes"/>
      <point x="439" y="15"/>
      <point x="455" y="0"/>
      <point x="481" y="0" type="curve" smooth="yes"/>
      <point x="720" y="0" type="line" smooth="yes"/>
      <point x="764" y="0"/>
      <point x="783" y="22"/>
      <point x="783" y="57" type="curve" smooth="yes"/>
      <point x="783" y="93"/>
      <point x="768" y="106"/>
      <point x="737" y="123" type="curve" smooth="yes"/>
      <point x="731" y="126"/>
      <point x="730" y="128"/>
      <point x="724" y="141" type="curve" smooth="yes"/>
      <point x="521" y="511" type="line"/>
    </contour>
    <component base="I" xOffset="-2"/>
  </outline>
</glyph>
<glyph name="N" format="2">
  <advance width="757"/>
  <unicode hex="004E"/>
  <anchor x="334" y="761" name="center"/>
  <outline>
    <contour>
      <point x="284" y="35" type="curve" smooth="yes"/>
      <point x="284" y="57"/>
      <point x="274" y="68"/>
      <point x="249" y="80" type="curve" smooth="yes"/>
      <point x="216" y="93" type="line" smooth="yes"/>
      <point x="195" y="102"/>
      <point x="184" y="111"/>
      <point x="184" y="137" type="curve" smooth="yes"/>
      <point x="184" y="581" type="line"/>
      <point x="135" y="529" type="line"/>
      <point x="445" y="83" type="line" smooth="yes"/>
      <point x="464" y="59"/>
      <point x="467" y="50"/>
      <point x="467" y="34" type="curve" smooth="yes"/>
      <point x="467" y="14"/>
      <point x="481" y="0"/>
      <point x="503" y="0" type="curve" smooth="yes"/>
      <point x="686" y="0" type="line" smooth="yes"/>
      <point x="707" y="0"/>
      <point x="721" y="16"/>
      <point x="721" y="39" type="curve" smooth="yes"/>
      <point x="721" y="53"/>
      <point x="718" y="62"/>
      <point x="703" y="87" type="curve" smooth="yes"/>
      <point x="686" y="116" type="line" smooth="yes"/>
      <point x="674" y="133"/>
      <point x="670" y="155"/>
      <point x="670" y="183" type="curve" smooth="yes"/>
      <point x="670" y="563" type="line" smooth="yes"/>
      <point x="670" y="587"/>
      <point x="679" y="598"/>
      <point x="697" y="607" type="curve" smooth="yes"/>
      <point x="722" y="620" type="line" smooth="yes"/>
      <point x="749" y="633"/>
      <point x="757" y="646"/>
      <point x="757" y="665" type="curve" smooth="yes"/>
      <point x="757" y="686"/>
      <point x="743" y="700"/>
      <point x="721" y="700" type="curve" smooth="yes"/>
      <point x="518" y="700" type="line" smooth="yes"/>
      <point x="499" y="700"/>
      <point x="487" y="686"/>
      <point x="487" y="664" type="curve" smooth="yes"/>
      <point x="487" y="646"/>
      <point x="498" y="632"/>
      <point x="523" y="620" type="curve" smooth="yes"/>
      <point x="557" y="607" type="line" smooth="yes"/>
      <point x="575" y="600"/>
      <point x="588" y="588"/>
      <point x="588" y="563" type="curve" smooth="yes"/>
      <point x="588" y="121" type="line"/>
      <point x="611" y="207" type="line"/>
      <point x="290" y="672" type="line" smooth="yes"/>
      <point x="269" y="699"/>
      <point x="256" y="700"/>
      <point x="232" y="700" type="curve" smooth="yes"/>
      <point x="60" y="700" type="line" smooth="yes"/>
      <point x="37" y="700"/>
      <point x="22" y="686"/>
      <point x="22" y="665" type="curve" smooth="yes"/>
      <point x="22" y="647"/>
      <point x="32" y="636"/>
      <point x="47" y="619" type="curve" smooth="yes"/>
      <point x="81" y="575" type="line" smooth="yes"/>
      <point x="95" y="559"/>
      <point x="101" y="550"/>
      <point x="101" y="520" type="curve" smooth="yes"/>
      <point x="101" y="136" type="line" smooth="yes"/>
      <point x="101" y="112"/>
      <point x="92" y="102"/>
      <point x="75" y="94" type="curve" smooth="yes"/>
      <point x="50" y="80" type="line" smooth="yes"/>
      <point x="25" y="68"/>
      <point x="15" y="53"/>
      <point x="15" y="35" type="curve" smooth="yes"/>
      <point x="15" y="14"/>
      <point x="29" y="0"/>
      <point x="51" y="0" type="curve" smooth="yes"/>
      <point x="248" y="0" type="line" smooth="yes"/>
      <point x="270" y="0"/>
      <point x="284" y="14"/>
    </contour>
  </outline>
</glyph>
<glyph name="O" format="2">
  <advance width="787"/>
  <unicode hex="004F"/>
  <outline>
    <contour>
      <point x="392" y="712" type="curve" smooth="yes"/>
      <point x="153" y="712"/>
      <point x="16" y="544"/>
      <point x="16" y="353" type="curve" smooth="yes"/>
      <point x="16" y="135"/>
      <point x="152" y="-14"/>
      <point x="396" y="-14" type="curve" smooth="yes"/>
      <point x="635" y="-14"/>
      <point x="771" y="155"/>
      <point x="771" y="348" type="curve" smooth="yes"/>
      <point x="771" y="561"/>
      <point x="632" y="712"/>
    </contour>
    <contour>
      <point x="526" y="229" type="curve" smooth="yes"/>
      <point x="526" y="125"/>
      <point x="499" y="73"/>
      <point x="446" y="73" type="curve" smooth="yes"/>
      <point x="364" y="73"/>
      <point x="261" y="259"/>
      <point x="261" y="473" type="curve" smooth="yes"/>
      <point x="261" y="572"/>
      <point x="289" y="625"/>
      <point x="341" y="625" type="curve" smooth="yes"/>
      <point x="423" y="625"/>
      <point x="526" y="440"/>
    </contour>
  </outline>
</glyph>
<glyph name="P" format="2">
  <advance width="703"/>
  <unicode hex="0050"/>
  <outline>
    <contour>
      <point x="706" y="423" type="curve" smooth="yes"/>
      <point x="706" y="588"/>
      <point x="554" y="700"/>
      <point x="326" y="700" type="curve" smooth="yes"/>
      <point x="36" y="700" type="line" smooth="yes"/>
      <point x="20" y="700"/>
      <point x="11" y="683"/>
      <point x="11" y="654" type="curve" smooth="yes"/>
      <point x="11" y="630"/>
      <point x="18" y="614"/>
      <point x="33" y="608" type="curve" smooth="yes"/>
      <point x="69" y="600" type="line" smooth="yes"/>
      <point x="90" y="594"/>
      <point x="101" y="580"/>
      <point x="101" y="560" type="curve" smooth="yes"/>
      <point x="101" y="137" type="line" smooth="yes"/>
      <point x="101" y="117"/>
      <point x="90" y="104"/>
      <point x="68" y="98" type="curve" smooth="yes"/>
      <point x="34" y="91" type="line" smooth="yes"/>
      <point x="16" y="85"/>
      <point x="11" y="68"/>
      <point x="11" y="44" type="curve" smooth="yes"/>
      <point x="11" y="17"/>
      <point x="20" y="0"/>
      <point x="36" y="0" type="curve" smooth="yes"/>
      <point x="378" y="0" type="line" smooth="yes"/>
      <point x="393" y="0"/>
      <point x="402" y="17"/>
      <point x="402" y="43" type="curve" smooth="yes"/>
      <point x="402" y="68"/>
      <point x="395" y="87"/>
      <point x="380" y="91" type="curve" smooth="yes"/>
      <point x="344" y="98" type="line" smooth="yes"/>
      <point x="324" y="104"/>
      <point x="312" y="117"/>
      <point x="312" y="136" type="curve" smooth="yes"/>
      <point x="312" y="620" type="line"/>
      <point x="321" y="620" type="line" smooth="yes"/>
      <point x="421" y="620"/>
      <point x="489" y="543"/>
      <point x="489" y="435" type="curve" smooth="yes"/>
      <point x="489" y="323"/>
      <point x="422" y="281"/>
      <point x="358" y="281" type="curve" smooth="yes"/>
      <point x="298" y="281"/>
      <point x="266" y="298"/>
      <point x="228" y="318" type="curve"/>
      <point x="218" y="243" type="line"/>
      <point x="278" y="210"/>
      <point x="331" y="195"/>
      <point x="450" y="195" type="curve" smooth="yes"/>
      <point x="603" y="195"/>
      <point x="706" y="287"/>
    </contour>
  </outline>
</glyph>
<glyph name="Q" format="2">
  <advance width="788"/>
  <unicode hex="0051"/>
  <outline>
    <contour>
      <point x="392" y="213" type="curve" smooth="yes"/>
      <point x="439" y="-108"/>
      <point x="558" y="-188"/>
      <point x="615" y="-188" type="curve" smooth="yes"/>
      <point x="682.4769230769231" y="-188.0"/>
      <point x="722" y="-175"/>
      <point x="744" y="-155" type="curve" smooth="yes"/>
      <point x="766" y="-135" type="line" smooth="yes"/>
      <point x="790" y="-113"/>
      <point x="795" y="-83"/>
      <point x="795" y="-49" type="curve" smooth="yes"/>
      <point x="795" y="-21"/>
      <point x="775" y="-3"/>
      <point x="751" y="-3" type="curve" smooth="yes"/>
      <point x="725" y="-3"/>
      <point x="702" y="-18"/>
      <point x="680" y="-18" type="curve" smooth="yes"/>
      <point x="591" y="-18"/>
      <point x="507" y="27"/>
      <point x="465" y="226" type="curve" smooth="yes"/>
      <point x="456" y="259"/>
      <point x="444" y="277"/>
      <point x="423" y="277" type="curve" smooth="yes"/>
      <point x="406" y="277"/>
      <point x="389" y="266"/>
      <point x="389" y="249" type="curve" smooth="yes"/>
      <point x="389" y="235"/>
      <point x="390" y="227"/>
    </contour>
    <component base="O"/>
  </outline>
</glyph>
<glyph name="R" format="2">
  <advance width="746"/>
  <unicode hex="0052"/>
  <anchor x="323" y="738" name="center"/>
  <outline>
    <contour>
      <point x="709" y="450" type="curve" smooth="yes"/>
      <point x="709" y="602"/>
      <point x="562" y="700"/>
      <point x="356" y="700" type="curve" smooth="yes"/>
      <point x="51" y="700" type="line" smooth="yes"/>
      <point x="29" y="700"/>
      <point x="15" y="684"/>
      <point x="15" y="662" type="curve" smooth="yes"/>
      <point x="15" y="639"/>
      <point x="27" y="625"/>
      <point x="51" y="619" type="curve" smooth="yes"/>
      <point x="76" y="615" type="line" smooth="yes"/>
      <point x="93" y="611"/>
      <point x="101" y="601"/>
      <point x="101" y="580" type="curve" smooth="yes"/>
      <point x="101" y="123" type="line" smooth="yes"/>
      <point x="101" y="100"/>
      <point x="93" y="89"/>
      <point x="76" y="85" type="curve" smooth="yes"/>
      <point x="51" y="81" type="line" smooth="yes"/>
      <point x="27" y="75"/>
      <point x="15" y="61"/>
      <point x="15" y="38" type="curve" smooth="yes"/>
      <point x="15" y="16"/>
      <point x="29" y="0"/>
      <point x="51" y="0" type="curve" smooth="yes"/>
      <point x="368" y="0" type="line" smooth="yes"/>
      <point x="389" y="0"/>
      <point x="404" y="16"/>
      <point x="404" y="38" type="curve" smooth="yes"/>
      <point x="404" y="61"/>
      <point x="392" y="73"/>
      <point x="368" y="81" type="curve" smooth="yes"/>
      <point x="346" y="85" type="line" smooth="yes"/>
      <point x="329" y="90"/>
      <point x="321" y="100"/>
      <point x="321" y="123" type="curve" smooth="yes"/>
      <point x="321" y="618" type="line"/>
      <point x="331" y="618" type="line" smooth="yes"/>
      <point x="413" y="618"/>
      <point x="481" y="545"/>
      <point x="481" y="443" type="curve" smooth="yes"/>
      <point x="481" y="354"/>
      <point x="434" y="312"/>
      <point x="366" y="312" type="curve" smooth="yes"/>
      <point x="330" y="312"/>
      <point x="311" y="322"/>
      <point x="283" y="341" type="curve"/>
      <point x="269" y="276" type="line"/>
      <point x="311" y="254"/>
      <point x="345" y="243"/>
      <point x="429" y="243" type="curve" smooth="yes"/>
      <point x="597" y="243"/>
      <point x="709" y="326"/>
    </contour>
    <contour>
      <point x="368" y="271" type="line"/>
      <point x="468" y="117" type="line" smooth="yes"/>
      <point x="480" y="98"/>
      <point x="479" y="85"/>
      <point x="465" y="79" type="curve" smooth="yes"/>
      <point x="452" y="74" type="line" smooth="yes"/>
      <point x="439" y="67"/>
      <point x="433" y="56"/>
      <point x="433" y="38" type="curve" smooth="yes"/>
      <point x="433" y="16"/>
      <point x="449" y="0"/>
      <point x="471" y="0" type="curve" smooth="yes"/>
      <point x="724" y="0" type="line" smooth="yes"/>
      <point x="746" y="0"/>
      <point x="761" y="14"/>
      <point x="761" y="38" type="curve" smooth="yes"/>
      <point x="761" y="55"/>
      <point x="750" y="68"/>
      <point x="737" y="76" type="curve" smooth="yes"/>
      <point x="717" y="87"/>
      <point x="708" y="95"/>
      <point x="696" y="114" type="curve" smooth="yes"/>
      <point x="576" y="298" type="line"/>
    </contour>
  </outline>
</glyph>
<glyph name="S" format="2">
  <advance width="607"/>
  <unicode hex="0053"/>
  <outline>
    <contour>
      <point x="317" y="-13" type="curve" smooth="yes"/>
      <point x="485" y="-13"/>
      <point x="586" y="84"/>
      <point x="586" y="207" type="curve" smooth="yes"/>
      <point x="586" y="311"/>
      <point x="531" y="397"/>
      <point x="336" y="454" type="curve" smooth="yes"/>
      <point x="261" y="477"/>
      <point x="224" y="507"/>
      <point x="224" y="558" type="curve" smooth="yes"/>
      <point x="224" y="600"/>
      <point x="255" y="630"/>
      <point x="305" y="630" type="curve" smooth="yes"/>
      <point x="372" y="630"/>
      <point x="442" y="588"/>
      <point x="520" y="474" type="curve" smooth="yes"/>
      <point x="533" y="456"/>
      <point x="547" y="447"/>
      <point x="564" y="447" type="curve" smooth="yes"/>
      <point x="588" y="448"/>
      <point x="606" y="465"/>
      <point x="598" y="492" type="curve" smooth="yes"/>
      <point x="552" y="654" type="line" smooth="yes"/>
      <point x="538" y="695"/>
      <point x="527" y="712"/>
      <point x="500" y="712" type="curve" smooth="yes"/>
      <point x="476" y="712"/>
      <point x="450" y="686"/>
      <point x="425" y="686" type="curve" smooth="yes"/>
      <point x="396" y="686"/>
      <point x="359" y="713"/>
      <point x="280" y="713" type="curve" smooth="yes"/>
      <point x="121" y="713"/>
      <point x="20" y="620"/>
      <point x="20" y="491" type="curve" smooth="yes"/>
      <point x="20" y="378"/>
      <point x="82" y="291"/>
      <point x="286" y="233" type="curve" smooth="yes"/>
      <point x="365" y="210"/>
      <point x="391" y="183"/>
      <point x="391" y="139" type="curve" smooth="yes"/>
      <point x="391" y="94"/>
      <point x="357" y="68"/>
      <point x="303" y="68" type="curve" smooth="yes"/>
      <point x="246" y="68"/>
      <point x="188" y="94"/>
      <point x="109" y="221" type="curve" smooth="yes"/>
      <point x="97" y="240"/>
      <point x="82" y="248"/>
      <point x="66" y="248" type="curve" smooth="yes"/>
      <point x="41" y="248"/>
      <point x="25" y="232"/>
      <point x="31" y="206" type="curve" smooth="yes"/>
      <point x="60" y="39" type="line" smooth="yes"/>
      <point x="69" y="-2"/>
      <point x="86" y="-20"/>
      <point x="114" y="-20" type="curve" smooth="yes"/>
      <point x="138" y="-20"/>
      <point x="163" y="12"/>
      <point x="186" y="12" type="curve" smooth="yes"/>
      <point x="206" y="12"/>
      <point x="244" y="-13"/>
    </contour>
  </outline>
</glyph>
<glyph name="T" format="2">
  <advance width="681"/>
  <unicode hex="0054"/>
  <outline>
    <contour>
      <point x="175" y="700" type="line" smooth="yes"/>
      <point x="129" y="700"/>
      <point x="106" y="716"/>
      <point x="81" y="716" type="curve" smooth="yes"/>
      <point x="49" y="716"/>
      <point x="35" y="700"/>
      <point x="25" y="660" type="curve" smooth="yes"/>
      <point x="-7" y="503" type="line" smooth="yes"/>
      <point x="-13" y="475"/>
      <point x="-2" y="455"/>
      <point x="21" y="450" type="curve" smooth="yes"/>
      <point x="42" y="446"/>
      <point x="58" y="452"/>
      <point x="69" y="477" type="curve" smooth="yes"/>
      <point x="124" y="589"/>
      <point x="156" y="618"/>
      <point x="202" y="618" type="curve" smooth="yes"/>
      <point x="227" y="618" type="line"/>
      <point x="227" y="120" type="line" smooth="yes"/>
      <point x="227" y="99"/>
      <point x="218" y="89"/>
      <point x="202" y="85" type="curve" smooth="yes"/>
      <point x="177" y="81" type="line" smooth="yes"/>
      <point x="153" y="75"/>
      <point x="140" y="61"/>
      <point x="140" y="38" type="curve" smooth="yes"/>
      <point x="140" y="16"/>
      <point x="155" y="0"/>
      <point x="177" y="0" type="curve" smooth="yes"/>
      <point x="504" y="0" type="line" smooth="yes"/>
      <point x="526" y="0"/>
      <point x="541" y="16"/>
      <point x="541" y="38" type="curve" smooth="yes"/>
      <point x="541" y="61"/>
      <point x="528" y="75"/>
      <point x="504" y="81" type="curve" smooth="yes"/>
      <point x="479" y="85" type="line" smooth="yes"/>
      <point x="463" y="89"/>
      <point x="454" y="99"/>
      <point x="454" y="120" type="curve" smooth="yes"/>
      <point x="454" y="618" type="line"/>
      <point x="479" y="618" type="line" smooth="yes"/>
      <point x="526" y="618"/>
      <point x="559" y="592"/>
      <point x="612" y="477" type="curve" smooth="yes"/>
      <point x="623" y="452"/>
      <point x="639" y="446"/>
      <point x="660" y="450" type="curve" smooth="yes"/>
      <point x="683" y="455"/>
      <point x="694" y="475"/>
      <point x="688" y="503" type="curve" smooth="yes"/>
      <point x="656" y="660" type="line" smooth="yes"/>
      <point x="646" y="700"/>
      <point x="632" y="716"/>
      <point x="601" y="716" type="curve" smooth="yes"/>
      <point x="575" y="716"/>
      <point x="552" y="700"/>
      <point x="506" y="700" type="curve" smooth="yes"/>
    </contour>
  </outline>
</glyph>
<glyph name="U" format="2">
  <advance width="708"/>
  <unicode hex="0055"/>
  <anchor x="274" y="-49" name="right"/>
  <anchor x="354" y="730" name="center"/>
  <outline>
    <contour>
      <point x="571" y="313" type="line" smooth="yes"/>
      <point x="573" y="287"/>
      <point x="575" y="262"/>
      <point x="575" y="215" type="curve" smooth="yes"/>
      <point x="575" y="128"/>
      <point x="514" y="75"/>
      <point x="424" y="75" type="curve" smooth="yes"/>
      <point x="340" y="75"/>
      <point x="289" y="119"/>
      <point x="289" y="226" type="curve" smooth="yes"/>
      <point x="289" y="249"/>
      <point x="291" y="284"/>
      <point x="293" y="323" type="curve" smooth="yes"/>
      <point x="309" y="580" type="line" smooth="yes"/>
      <point x="311" y="601"/>
      <point x="318" y="612"/>
      <point x="335" y="615" type="curve" smooth="yes"/>
      <point x="361" y="619" type="line" smooth="yes"/>
      <point x="384" y="625"/>
      <point x="397" y="639"/>
      <point x="397" y="662" type="curve" smooth="yes"/>
      <point x="397" y="684"/>
      <point x="382" y="700"/>
      <point x="361" y="700" type="curve" smooth="yes"/>
      <point x="33" y="700" type="line" smooth="yes"/>
      <point x="11" y="700"/>
      <point x="-3" y="684"/>
      <point x="-3" y="662" type="curve" smooth="yes"/>
      <point x="-3" y="639"/>
      <point x="9" y="625"/>
      <point x="33" y="619" type="curve" smooth="yes"/>
      <point x="58" y="615" type="line" smooth="yes"/>
      <point x="81" y="610"/>
      <point x="90" y="600"/>
      <point x="88" y="579" type="curve" smooth="yes"/>
      <point x="70" y="329" type="line" smooth="yes"/>
      <point x="67" y="299"/>
      <point x="62" y="239"/>
      <point x="62" y="212" type="curve" smooth="yes"/>
      <point x="62" y="71"/>
      <point x="164" y="-14"/>
      <point x="355" y="-14" type="curve" smooth="yes"/>
      <point x="563" y="-14"/>
      <point x="658" y="83"/>
      <point x="658" y="211" type="curve" smooth="yes"/>
      <point x="658" y="247"/>
      <point x="656" y="280"/>
      <point x="653" y="316" type="curve" smooth="yes"/>
      <point x="630" y="573" type="line" smooth="yes"/>
      <point x="628" y="597"/>
      <point x="638" y="610"/>
      <point x="660" y="615" type="curve" smooth="yes"/>
      <point x="685" y="619" type="line" smooth="yes"/>
      <point x="709" y="625"/>
      <point x="721" y="639"/>
      <point x="721" y="662" type="curve" smooth="yes"/>
      <point x="721" y="684"/>
      <point x="706" y="700"/>
      <point x="685" y="700" type="curve" smooth="yes"/>
      <point x="502" y="700" type="line" smooth="yes"/>
      <point x="480" y="700"/>
      <point x="465" y="684"/>
      <point x="465" y="662" type="curve" smooth="yes"/>
      <point x="465" y="639"/>
      <point x="478" y="625"/>
      <point x="502" y="619" type="curve" smooth="yes"/>
      <point x="527" y="615" type="line" smooth="yes"/>
      <point x="543" y="611"/>
      <point x="550" y="601"/>
      <point x="552" y="580" type="curve" smooth="yes"/>
    </contour>
  </outline>
</glyph>
<glyph name="V" format="2">
  <advance width="720"/>
  <unicode hex="0056"/>
  <outline>
    <contour>
      <point x="510" y="662" type="curve" smooth="yes"/>
      <point x="510" y="641"/>
      <point x="523" y="627"/>
      <point x="546" y="621" type="curve" smooth="yes"/>
      <point x="571" y="611" type="line" smooth="yes"/>
      <point x="588" y="606"/>
      <point x="587" y="593"/>
      <point x="583" y="580" type="curve" smooth="yes"/>
      <point x="391" y="54" type="line"/>
      <point x="465" y="120" type="line"/>
      <point x="304" y="561" type="line" smooth="yes"/>
      <point x="291" y="595"/>
      <point x="284" y="612"/>
      <point x="308" y="618" type="curve" smooth="yes"/>
      <point x="324" y="623" type="line" smooth="yes"/>
      <point x="348" y="629"/>
      <point x="361" y="641"/>
      <point x="361" y="662" type="curve" smooth="yes"/>
      <point x="361" y="684"/>
      <point x="346" y="700"/>
      <point x="325" y="700" type="curve" smooth="yes"/>
      <point x="23" y="700" type="line" smooth="yes"/>
      <point x="1" y="700"/>
      <point x="-14" y="685"/>
      <point x="-14" y="663" type="curve" smooth="yes"/>
      <point x="-14" y="647"/>
      <point x="-7" y="637"/>
      <point x="7" y="627" type="curve" smooth="yes"/>
      <point x="21" y="620" type="line" smooth="yes"/>
      <point x="37" y="611"/>
      <point x="43" y="604"/>
      <point x="55" y="572" type="curve" smooth="yes"/>
      <point x="240" y="91" type="line" smooth="yes"/>
      <point x="246" y="75"/>
      <point x="250" y="55"/>
      <point x="250" y="47" type="curve" smooth="yes"/>
      <point x="250" y="36" type="line" smooth="yes"/>
      <point x="250" y="12"/>
      <point x="264" y="0"/>
      <point x="282" y="0" type="curve" smooth="yes"/>
      <point x="451" y="0" type="line" smooth="yes"/>
      <point x="471" y="0"/>
      <point x="485" y="13"/>
      <point x="485" y="34" type="curve" smooth="yes"/>
      <point x="485" y="50" type="line" smooth="yes"/>
      <point x="485" y="66"/>
      <point x="487" y="80"/>
      <point x="497" y="107" type="curve" smooth="yes"/>
      <point x="660" y="553" type="line" smooth="yes"/>
      <point x="675" y="592"/>
      <point x="684" y="603"/>
      <point x="707" y="616" type="curve" smooth="yes"/>
      <point x="725" y="626" type="line" smooth="yes"/>
      <point x="741" y="636"/>
      <point x="748" y="648"/>
      <point x="748" y="662" type="curve" smooth="yes"/>
      <point x="748" y="685"/>
      <point x="733" y="700"/>
      <point x="712" y="700" type="curve" smooth="yes"/>
      <point x="546" y="700" type="line" smooth="yes"/>
      <point x="525" y="700"/>
      <point x="510" y="685"/>
    </contour>
  </outline>
</glyph>
<glyph name="W" format="2">
  <advance width="1044"/>
  <unicode hex="0057"/>
  <outline>
    <contour>
      <point x="544" y="535" type="line"/>
      <point x="369" y="85" type="line"/>
      <point x="448" y="91" type="line"/>
      <point x="284" y="524" type="line" smooth="yes"/>
      <point x="266" y="573"/>
      <point x="280" y="593"/>
      <point x="305" y="601" type="curve" smooth="yes"/>
      <point x="306" y="602" type="line" smooth="yes"/>
      <point x="337" y="612"/>
      <point x="349" y="627"/>
      <point x="349" y="655" type="curve" smooth="yes"/>
      <point x="349" y="683"/>
      <point x="334" y="700"/>
      <point x="312" y="700" type="curve" smooth="yes"/>
      <point x="52" y="700" type="line" smooth="yes"/>
      <point x="23" y="700"/>
      <point x="7" y="679"/>
      <point x="7" y="646" type="curve" smooth="yes"/>
      <point x="7" y="633"/>
      <point x="17" y="610"/>
      <point x="32" y="600" type="curve" smooth="yes"/>
      <point x="48" y="596"/>
      <point x="47" y="576"/>
      <point x="65" y="531" type="curve" smooth="yes"/>
      <point x="208" y="177" type="line" smooth="yes"/>
      <point x="237" y="102"/>
      <point x="241" y="85"/>
      <point x="241" y="58" type="curve" smooth="yes"/>
      <point x="241" y="58" type="line" smooth="yes"/>
      <point x="241" y="20"/>
      <point x="264" y="0"/>
      <point x="289" y="0" type="curve" smooth="yes"/>
      <point x="399" y="0" type="line" smooth="yes"/>
      <point x="428" y="0"/>
      <point x="446" y="22"/>
      <point x="446" y="54" type="curve" smooth="yes"/>
      <point x="446" y="56" type="line" smooth="yes"/>
      <point x="446" y="76"/>
      <point x="459" y="99"/>
      <point x="482" y="156" type="curve" smooth="yes"/>
      <point x="611" y="483" type="line"/>
    </contour>
    <contour>
      <point x="809" y="653" type="curve" smooth="yes"/>
      <point x="809" y="629"/>
      <point x="822" y="618"/>
      <point x="857" y="597" type="curve" smooth="yes"/>
      <point x="847" y="598" type="line" smooth="yes"/>
      <point x="892" y="569"/>
      <point x="894" y="528"/>
      <point x="879" y="485" type="curve" smooth="yes"/>
      <point x="728" y="61" type="line"/>
      <point x="826" y="79" type="line"/>
      <point x="672" y="502" type="line" smooth="yes"/>
      <point x="652" y="559"/>
      <point x="660" y="594"/>
      <point x="689" y="602" type="curve" smooth="yes"/>
      <point x="693" y="604" type="line" smooth="yes"/>
      <point x="712" y="610"/>
      <point x="722" y="624"/>
      <point x="722" y="654" type="curve" smooth="yes"/>
      <point x="722" y="682"/>
      <point x="707" y="700"/>
      <point x="685" y="700" type="curve" smooth="yes"/>
      <point x="414" y="700" type="line" smooth="yes"/>
      <point x="388" y="700"/>
      <point x="371" y="685"/>
      <point x="371" y="656" type="curve" smooth="yes"/>
      <point x="371" y="635"/>
      <point x="380" y="613"/>
      <point x="397" y="604" type="curve" smooth="yes"/>
      <point x="425" y="590"/>
      <point x="434" y="566"/>
      <point x="444" y="539" type="curve" smooth="yes"/>
      <point x="592" y="149" type="line" smooth="yes"/>
      <point x="612" y="94"/>
      <point x="616" y="78"/>
      <point x="616" y="56" type="curve" smooth="yes"/>
      <point x="616" y="49" type="line" smooth="yes"/>
      <point x="616" y="23"/>
      <point x="636" y="0"/>
      <point x="663" y="0" type="curve" smooth="yes"/>
      <point x="775" y="0" type="line" smooth="yes"/>
      <point x="804" y="0"/>
      <point x="821" y="23"/>
      <point x="821" y="49" type="curve" smooth="yes"/>
      <point x="821" y="53" type="line" smooth="yes"/>
      <point x="821" y="78"/>
      <point x="835" y="119"/>
      <point x="850" y="157" type="curve" smooth="yes"/>
      <point x="979" y="518" type="line" smooth="yes"/>
      <point x="994" y="563"/>
      <point x="995" y="582"/>
      <point x="1007" y="586" type="curve" smooth="yes"/>
      <point x="1022" y="596"/>
      <point x="1038" y="621"/>
      <point x="1038" y="656" type="curve" smooth="yes"/>
      <point x="1038" y="684"/>
      <point x="1011" y="700"/>
      <point x="981" y="700" type="curve" smooth="yes"/>
      <point x="855" y="700" type="line" smooth="yes"/>
      <point x="826" y="700"/>
      <point x="809" y="682"/>
    </contour>
  </outline>
</glyph>
<glyph name="X" format="2">
  <advance width="751"/>
  <unicode hex="0058"/>
  <outline>
    <contour>
      <point x="645" y="136" type="curve" smooth="yes"/>
      <point x="394" y="515" type="line" smooth="yes"/>
      <point x="371" y="548"/>
      <point x="348" y="592"/>
      <point x="391" y="603" type="curve" smooth="yes"/>
      <point x="397" y="605" type="line" smooth="yes"/>
      <point x="411" y="608"/>
      <point x="427" y="626"/>
      <point x="427" y="654" type="curve" smooth="yes"/>
      <point x="427" y="685"/>
      <point x="408" y="700"/>
      <point x="375" y="700" type="curve" smooth="yes"/>
      <point x="37" y="700" type="line" smooth="yes"/>
      <point x="24" y="700"/>
      <point x="14" y="685"/>
      <point x="14" y="656" type="curve" smooth="yes"/>
      <point x="14" y="635"/>
      <point x="18" y="616"/>
      <point x="46" y="605" type="curve" smooth="yes"/>
      <point x="72" y="596"/>
      <point x="82" y="587"/>
      <point x="99" y="561" type="curve" smooth="yes"/>
      <point x="332" y="209" type="line" smooth="yes"/>
      <point x="385" y="137"/>
      <point x="405" y="122"/>
      <point x="337" y="99" type="curve" smooth="yes"/>
      <point x="321" y="90"/>
      <point x="313" y="80"/>
      <point x="313" y="51" type="curve" smooth="yes"/>
      <point x="313" y="21"/>
      <point x="334" y="0"/>
      <point x="364" y="0" type="curve" smooth="yes"/>
      <point x="700" y="0" type="line" smooth="yes"/>
      <point x="729" y="0"/>
      <point x="742" y="19"/>
      <point x="742" y="47" type="curve" smooth="yes"/>
      <point x="742" y="78"/>
      <point x="731" y="97"/>
      <point x="715" y="98" type="curve" smooth="yes"/>
      <point x="686" y="104"/>
      <point x="667" y="106"/>
    </contour>
    <contour>
      <point x="440" y="326" type="line"/>
      <point x="601" y="521" type="line" smooth="yes"/>
      <point x="632" y="557"/>
      <point x="646" y="572"/>
      <point x="678" y="585" type="curve" smooth="yes"/>
      <point x="706" y="596"/>
      <point x="713" y="616"/>
      <point x="715" y="648" type="curve" smooth="yes"/>
      <point x="717" y="676"/>
      <point x="695" y="700"/>
      <point x="666" y="700" type="curve" smooth="yes"/>
      <point x="455" y="700" type="line" smooth="yes"/>
      <point x="427" y="700"/>
      <point x="412" y="685"/>
      <point x="412" y="654" type="curve" smooth="yes"/>
      <point x="412" y="628"/>
      <point x="422" y="618"/>
      <point x="450" y="604" type="curve" smooth="yes"/>
      <point x="467" y="592" type="line" smooth="yes"/>
      <point x="502" y="575"/>
      <point x="501" y="533"/>
      <point x="450" y="469" type="curve" smooth="yes"/>
      <point x="355" y="354" type="line"/>
    </contour>
    <contour>
      <point x="313" y="377" type="line"/>
      <point x="164" y="180" type="line" smooth="yes"/>
      <point x="134" y="140"/>
      <point x="102" y="124"/>
      <point x="58" y="120" type="curve" smooth="yes"/>
      <point x="14" y="116"/>
      <point x="7" y="82"/>
      <point x="7" y="63" type="curve" smooth="yes"/>
      <point x="7" y="19"/>
      <point x="32" y="-1"/>
      <point x="63" y="-1" type="curve" smooth="yes"/>
      <point x="280" y="-1" type="line" smooth="yes"/>
      <point x="309" y="-1"/>
      <point x="323" y="17"/>
      <point x="323" y="44" type="curve" smooth="yes"/>
      <point x="323" y="62"/>
      <point x="323" y="85"/>
      <point x="295" y="96" type="curve" smooth="yes"/>
      <point x="264" y="109" type="line" smooth="yes"/>
      <point x="242" y="118"/>
      <point x="235" y="141"/>
      <point x="255" y="164" type="curve" smooth="yes"/>
      <point x="398" y="347" type="line"/>
    </contour>
  </outline>
</glyph>
<glyph name="Y" format="2">
  <advance width="666"/>
  <unicode hex="0059"/>
  <anchor x="304" y="710" name="center"/>
  <outline>
    <contour>
      <point x="233" y="242" type="line"/>
      <point x="233" y="141" type="line" smooth="yes"/>
      <point x="233" y="118"/>
      <point x="223" y="109"/>
      <point x="200" y="102" type="curve" smooth="yes"/>
      <point x="167" y="95" type="line" smooth="yes"/>
      <point x="152" y="92"/>
      <point x="144" y="77"/>
      <point x="144" y="46" type="curve" smooth="yes"/>
      <point x="144" y="17"/>
      <point x="163" y="0"/>
      <point x="188" y="0" type="curve" smooth="yes"/>
      <point x="488" y="0" type="line" smooth="yes"/>
      <point x="519" y="0"/>
      <point x="533" y="15"/>
      <point x="533" y="46" type="curve" smooth="yes"/>
      <point x="533" y="77"/>
      <point x="524" y="92"/>
      <point x="509" y="95" type="curve" smooth="yes"/>
      <point x="476" y="102" type="line" smooth="yes"/>
      <point x="454" y="109"/>
      <point x="444" y="118"/>
      <point x="444" y="141" type="curve" smooth="yes"/>
      <point x="444" y="242" type="line"/>
    </contour>
    <contour>
      <point x="429" y="198" type="line"/>
      <point x="575" y="518" type="line" smooth="yes"/>
      <point x="599" y="572"/>
      <point x="610" y="590"/>
      <point x="635" y="597" type="curve" smooth="yes"/>
      <point x="653" y="601"/>
      <point x="657" y="628"/>
      <point x="657" y="651" type="curve" smooth="yes"/>
      <point x="657" y="684"/>
      <point x="644" y="700"/>
      <point x="612" y="700" type="curve" smooth="yes"/>
      <point x="463" y="700" type="line" smooth="yes"/>
      <point x="435" y="700"/>
      <point x="419" y="681"/>
      <point x="419" y="654" type="curve" smooth="yes"/>
      <point x="419" y="632"/>
      <point x="427" y="607"/>
      <point x="446" y="602" type="curve" smooth="yes"/>
      <point x="485" y="590"/>
      <point x="496" y="577"/>
      <point x="496" y="559" type="curve" smooth="yes"/>
      <point x="496" y="546"/>
      <point x="492" y="532"/>
      <point x="484" y="516" type="curve" smooth="yes"/>
      <point x="368" y="246" type="line"/>
      <point x="426" y="263" type="line"/>
      <point x="297" y="546" type="line" smooth="yes"/>
      <point x="285" y="572"/>
      <point x="295" y="591"/>
      <point x="318" y="597" type="curve" smooth="yes"/>
      <point x="352" y="606" type="line" smooth="yes"/>
      <point x="366" y="609"/>
      <point x="372" y="625"/>
      <point x="372" y="654" type="curve" smooth="yes"/>
      <point x="372" y="682"/>
      <point x="356" y="700"/>
      <point x="332" y="700" type="curve" smooth="yes"/>
      <point x="53" y="700" type="line" smooth="yes"/>
      <point x="26" y="700"/>
      <point x="8" y="685"/>
      <point x="8" y="656" type="curve" smooth="yes"/>
      <point x="8" y="635"/>
      <point x="10" y="611"/>
      <point x="28" y="605" type="curve" smooth="yes"/>
      <point x="54" y="597"/>
      <point x="60" y="585"/>
      <point x="78" y="550" type="curve" smooth="yes"/>
      <point x="250" y="198" type="line"/>
    </contour>
  </outline>
</glyph>
<glyph name="Z" format="2">
  <advance width="684"/>
  <unicode hex="005A"/>
  <outline>
    <contour>
      <point x="607" y="589" type="line" smooth="yes"/>
      <point x="625" y="615"/>
      <point x="633" y="644"/>
      <point x="633" y="654" type="curve" smooth="yes"/>
      <point x="633" y="682"/>
      <point x="622" y="703"/>
      <point x="597" y="703" type="curve" smooth="yes"/>
      <point x="222" y="703" type="line" smooth="yes"/>
      <point x="188" y="703"/>
      <point x="159" y="723"/>
      <point x="128" y="723" type="curve" smooth="yes"/>
      <point x="95" y="723"/>
      <point x="75" y="701"/>
      <point x="67" y="657" type="curve" smooth="yes"/>
      <point x="44" y="521" type="line" smooth="yes"/>
      <point x="40" y="500"/>
      <point x="40" y="482"/>
      <point x="40" y="461" type="curve" smooth="yes"/>
      <point x="40" y="433"/>
      <point x="51" y="415"/>
      <point x="74" y="415" type="curve" smooth="yes"/>
      <point x="104" y="415"/>
      <point x="129" y="428"/>
      <point x="141" y="470" type="curve" smooth="yes"/>
      <point x="144" y="504" type="line" smooth="yes"/>
      <point x="170" y="581"/>
      <point x="244" y="624"/>
      <point x="310" y="624" type="curve" smooth="yes"/>
      <point x="451" y="624" type="line"/>
      <point x="441" y="676" type="line"/>
      <point x="80" y="114" type="line" smooth="yes"/>
      <point x="52" y="74"/>
      <point x="55" y="70"/>
      <point x="55" y="68" type="curve" smooth="yes"/>
      <point x="55" y="34"/>
      <point x="72" y="4"/>
      <point x="114" y="4" type="curve" smooth="yes"/>
      <point x="481" y="4" type="line" smooth="yes"/>
      <point x="517" y="4"/>
      <point x="536" y="-18"/>
      <point x="553" y="-18" type="curve" smooth="yes"/>
      <point x="601" y="-18"/>
      <point x="627" y="-1"/>
      <point x="636" y="53" type="curve" smooth="yes"/>
      <point x="656" y="168" type="line" smooth="yes"/>
      <point x="664" y="216"/>
      <point x="665" y="241"/>
      <point x="665" y="270" type="curve" smooth="yes"/>
      <point x="665" y="294"/>
      <point x="648" y="308"/>
      <point x="629" y="308" type="curve" smooth="yes"/>
      <point x="609" y="308"/>
      <point x="596" y="299"/>
      <point x="582" y="266" type="curve" smooth="yes"/>
      <point x="578" y="236" type="line" smooth="yes"/>
      <point x="522" y="110"/>
      <point x="461" y="83"/>
      <point x="363" y="83" type="curve" smooth="yes"/>
      <point x="122" y="83" type="line"/>
      <point x="246" y="30" type="line"/>
    </contour>
  </outline>
</glyph>
<glyph name="a" format="2">
  <advance width="513"/>
  <unicode hex="0061"/>
  <anchor x="271" y="488" name="center"/>
  <outline>
    <contour>
      <point x="31" y="326" type="curve" smooth="yes"/>
      <point x="31" y="283"/>
      <point x="57" y="260"/>
      <point x="108" y="260" type="curve" smooth="yes"/>
      <point x="170" y="260"/>
      <point x="207" y="293"/>
      <point x="207" y="342" type="curve" smooth="yes"/>
      <point x="207" y="378" type="line" smooth="yes"/>
      <point x="207" y="394"/>
      <point x="218" y="403"/>
      <point x="233" y="403" type="curve" smooth="yes"/>
      <point x="254" y="403"/>
      <point x="268" y="388"/>
      <point x="268" y="365" type="curve" smooth="yes"/>
      <point x="268" y="99" type="line" smooth="yes"/>
      <point x="268" y="33"/>
      <point x="323" y="-14"/>
      <point x="387" y="-14" type="curve" smooth="yes"/>
      <point x="475" y="-14"/>
      <point x="519" y="41"/>
      <point x="519" y="80" type="curve" smooth="yes"/>
      <point x="519" y="92"/>
      <point x="512" y="103"/>
      <point x="499" y="103" type="curve" smooth="yes"/>
      <point x="491" y="103"/>
      <point x="487" y="88"/>
      <point x="473" y="88" type="curve" smooth="yes"/>
      <point x="462" y="88"/>
      <point x="456" y="98"/>
      <point x="456" y="109" type="curve" smooth="yes"/>
      <point x="456" y="322" type="line" smooth="yes"/>
      <point x="456" y="407"/>
      <point x="399" y="455"/>
      <point x="291" y="455" type="curve" smooth="yes"/>
      <point x="117" y="455"/>
      <point x="31" y="385"/>
    </contour>
    <contour>
      <point x="284" y="180" type="curve"/>
      <point x="299" y="222" type="line"/>
      <point x="287" y="229"/>
      <point x="269" y="235"/>
      <point x="244" y="235" type="curve" smooth="yes"/>
      <point x="75" y="235"/>
      <point x="9" y="179"/>
      <point x="9" y="101" type="curve" smooth="yes"/>
      <point x="9" y="32"/>
      <point x="67" y="-14"/>
      <point x="146" y="-14" type="curve" smooth="yes"/>
      <point x="209" y="-14"/>
      <point x="266" y="8"/>
      <point x="297" y="54" type="curve"/>
      <point x="286" y="94" type="line"/>
      <point x="278" y="84"/>
      <point x="263" y="75"/>
      <point x="244" y="75" type="curve" smooth="yes"/>
      <point x="218" y="75"/>
      <point x="199" y="96"/>
      <point x="199" y="134" type="curve" smooth="yes"/>
      <point x="199" y="170"/>
      <point x="217" y="192"/>
      <point x="243" y="192" type="curve" smooth="yes"/>
      <point x="259" y="192"/>
      <point x="270" y="188"/>
    </contour>
  </outline>
</glyph>
<glyph name="b" format="2">
  <advance width="559"/>
  <unicode hex="0062"/>
  <outline>
    <contour>
      <point x="227" y="670" type="line" smooth="yes"/>
      <point x="227.0" y="691.0"/>
      <point x="216" y="706"/>
      <point x="199" y="706" type="curve" smooth="yes"/>
      <point x="183" y="706"/>
      <point x="173" y="703"/>
      <point x="153" y="697" type="curve" smooth="yes"/>
      <point x="14" y="654" type="line" smooth="yes"/>
      <point x="-3" y="649"/>
      <point x="-13" y="637"/>
      <point x="-13" y="622" type="curve" smooth="yes"/>
      <point x="-13" y="607"/>
      <point x="-9" y="595"/>
      <point x="12" y="591" type="curve" smooth="yes"/>
      <point x="22" y="589" type="line" smooth="yes"/>
      <point x="33" y="587"/>
      <point x="37.0" y="576.0"/>
      <point x="37" y="555" type="curve" smooth="yes"/>
      <point x="37" y="15" type="line" smooth="yes"/>
      <point x="37" y="-2"/>
      <point x="47" y="-11"/>
      <point x="62" y="-11" type="curve" smooth="yes"/>
      <point x="82" y="-11"/>
      <point x="102" y="-6"/>
      <point x="125" y="2" type="curve" smooth="yes"/>
      <point x="227" y="30" type="line"/>
    </contour>
    <contour>
      <point x="198" y="314" type="line"/>
      <point x="218" y="339"/>
      <point x="245" y="357"/>
      <point x="278" y="357" type="curve" smooth="yes"/>
      <point x="323" y="357"/>
      <point x="352" y="310"/>
      <point x="352" y="217" type="curve" smooth="yes"/>
      <point x="352" y="116"/>
      <point x="320" y="71"/>
      <point x="269" y="71" type="curve" smooth="yes"/>
      <point x="244" y="71"/>
      <point x="222" y="83"/>
      <point x="204" y="114" type="curve"/>
      <point x="178" y="66" type="line"/>
      <point x="212" y="14"/>
      <point x="258" y="-13"/>
      <point x="329" y="-13" type="curve" smooth="yes"/>
      <point x="465" y="-13"/>
      <point x="546" y="84"/>
      <point x="546" y="234" type="curve" smooth="yes"/>
      <point x="546" y="376"/>
      <point x="470" y="456"/>
      <point x="367" y="456" type="curve" smooth="yes"/>
      <point x="288" y="456"/>
      <point x="229" y="412"/>
      <point x="183" y="361" type="curve"/>
    </contour>
  </outline>
</glyph>
<glyph name="c" format="2">
  <advance width="489"/>
  <unicode hex="0063"/>
  <anchor x="253" y="512" name="center"/>
  <outline>
    <contour>
      <point x="491" y="314" type="curve" smooth="yes"/>
      <point x="491" y="423"/>
      <point x="416" y="485"/>
      <point x="281" y="485" type="curve" smooth="yes"/>
      <point x="123" y="485"/>
      <point x="10" y="373"/>
      <point x="10" y="220" type="curve" smooth="yes"/>
      <point x="10" y="74"/>
      <point x="120" y="-14"/>
      <point x="269" y="-14" type="curve" smooth="yes"/>
      <point x="377" y="-14"/>
      <point x="470" y="42"/>
      <point x="475" y="157" type="curve" smooth="yes"/>
      <point x="476" y="188"/>
      <point x="460" y="212"/>
      <point x="440" y="212" type="curve" smooth="yes"/>
      <point x="426" y="212"/>
      <point x="414" y="208"/>
      <point x="390" y="181" type="curve" smooth="yes"/>
      <point x="379" y="155"/>
      <point x="352" y="146"/>
      <point x="318" y="146" type="curve" smooth="yes"/>
      <point x="255" y="146"/>
      <point x="202" y="199"/>
      <point x="202" y="263" type="curve" smooth="yes"/>
      <point x="202" y="336"/>
      <point x="217" y="392"/>
      <point x="257" y="392" type="curve" smooth="yes"/>
      <point x="282" y="392"/>
      <point x="292" y="370"/>
      <point x="292" y="332" type="curve" smooth="yes"/>
      <point x="292" y="316" type="line" smooth="yes"/>
      <point x="292" y="264"/>
      <point x="331" y="222"/>
      <point x="395" y="222" type="curve" smooth="yes"/>
      <point x="454" y="222"/>
      <point x="491" y="261"/>
    </contour>
  </outline>
</glyph>
<glyph name="e" format="2">
  <advance width="474"/>
  <unicode hex="0065"/>
  <anchor x="212" y="482" name="center"/>
  <outline>
    <contour>
      <point x="470" y="276" type="curve" smooth="yes"/>
      <point x="470" y="379"/>
      <point x="394" y="455"/>
      <point x="260" y="455" type="curve" smooth="yes"/>
      <point x="99" y="455"/>
      <point x="7" y="359"/>
      <point x="7" y="208" type="curve" smooth="yes"/>
      <point x="7" y="74"/>
      <point x="107" y="-14"/>
      <point x="247" y="-14" type="curve" smooth="yes"/>
      <point x="381" y="-14"/>
      <point x="467" y="65"/>
      <point x="468" y="158" type="curve" smooth="yes"/>
      <point x="468" y="176"/>
      <point x="461" y="183"/>
      <point x="450" y="183" type="curve" smooth="yes"/>
      <point x="445" y="183"/>
      <point x="436" y="181"/>
      <point x="424" y="169" type="curve" smooth="yes"/>
      <point x="400" y="133"/>
      <point x="359" y="117"/>
      <point x="307" y="117" type="curve" smooth="yes"/>
      <point x="235" y="117"/>
      <point x="176" y="169"/>
      <point x="176" y="262" type="curve" smooth="yes"/>
      <point x="176" y="351"/>
      <point x="200" y="386"/>
      <point x="230" y="386" type="curve" smooth="yes"/>
      <point x="256" y="386"/>
      <point x="280" y="352"/>
      <point x="280" y="285" type="curve" smooth="yes"/>
      <point x="280" y="270"/>
      <point x="270" y="260"/>
      <point x="252" y="260" type="curve" smooth="yes"/>
      <point x="129" y="260" type="line"/>
      <point x="129" y="220" type="line"/>
      <point x="408" y="220" type="line" smooth="yes"/>
      <point x="448" y="220"/>
      <point x="470" y="243"/>
    </contour>
  </outline>
</glyph>
<glyph name="f" format="2">
  <advance width="357"/>
  <unicode hex="0066"/>
  <outline>
    <contour>
      <point x="261" y="113" type="curve" smooth="yes"/>
      <point x="261" y="374" type="line"/>
      <point x="289" y="374" type="line" smooth="yes"/>
      <point x="327" y="374"/>
      <point x="353" y="392"/>
      <point x="353" y="420" type="curve" smooth="yes"/>
      <point x="353" y="438"/>
      <point x="341" y="448"/>
      <point x="323" y="448" type="curve" smooth="yes"/>
      <point x="228" y="448" type="line"/>
      <point x="247" y="422" type="line"/>
      <point x="247" y="440" type="line" smooth="yes"/>
      <point x="247" y="495.42424242424244"/>
      <point x="151.0" y="549.9545454545455"/>
      <point x="151" y="617" type="curve" smooth="yes"/>
      <point x="151" y="644"/>
      <point x="165" y="661"/>
      <point x="188" y="661" type="curve" smooth="yes"/>
      <point x="209" y="661"/>
      <point x="222" y="647"/>
      <point x="222" y="618" type="curve" smooth="yes"/>
      <point x="222" y="585" type="line" smooth="yes"/>
      <point x="222" y="538"/>
      <point x="256" y="503"/>
      <point x="303" y="503" type="curve" smooth="yes"/>
      <point x="348" y="503"/>
      <point x="378" y="529"/>
      <point x="378" y="581" type="curve" smooth="yes"/>
      <point x="378" y="651"/>
      <point x="329" y="706"/>
      <point x="218" y="706" type="curve" smooth="yes"/>
      <point x="87" y="706"/>
      <point x="23" y="642"/>
      <point x="23" y="558" type="curve" smooth="yes"/>
      <point x="23.0" y="491.7841726618705"/>
      <point x="74" y="460.37410071942446"/>
      <point x="74" y="440" type="curve" smooth="yes"/>
      <point x="74" y="433" type="line"/>
      <point x="116" y="448" type="line"/>
      <point x="32" y="448" type="line" smooth="yes"/>
      <point x="13" y="448"/>
      <point x="1" y="436"/>
      <point x="1" y="421" type="curve" smooth="yes"/>
      <point x="1" y="405"/>
      <point x="9" y="392"/>
      <point x="31" y="384" type="curve" smooth="yes"/>
      <point x="53" y="376" type="line" smooth="yes"/>
      <point x="67" y="371"/>
      <point x="75.0" y="361.0"/>
      <point x="75" y="345" type="curve" smooth="yes"/>
      <point x="75" y="94" type="line" smooth="yes"/>
      <point x="75" y="75"/>
      <point x="66" y="68"/>
      <point x="54" y="63" type="curve" smooth="yes"/>
      <point x="38" y="58" type="line" smooth="yes"/>
      <point x="21" y="52"/>
      <point x="12" y="43"/>
      <point x="12" y="27" type="curve" smooth="yes"/>
      <point x="12" y="9"/>
      <point x="22" y="0"/>
      <point x="39" y="0" type="curve" smooth="yes"/>
      <point x="319" y="0" type="line" smooth="yes"/>
      <point x="339" y="0"/>
      <point x="349" y="9"/>
      <point x="349" y="28" type="curve" smooth="yes"/>
      <point x="349" y="44"/>
      <point x="335" y="55"/>
      <point x="316" y="60" type="curve" smooth="yes"/>
      <point x="291" y="67" type="line" smooth="yes"/>
      <point x="271" y="73"/>
      <point x="261" y="90"/>
    </contour>
  </outline>
</glyph>
<glyph name="g" format="2">
  <advance width="515"/>
  <unicode hex="0067"/>
  <outline>
    <contour>
      <point x="311" y="61" type="curve" smooth="yes"/>
      <point x="470.01196328241775" y="53.99947331461054"/>
      <point x="523.0" y="14.282442748091597"/>
      <point x="523" y="-75" type="curve" smooth="yes"/>
      <point x="523.0" y="-174.10227272727275"/>
      <point x="421.0" y="-246.0"/>
      <point x="229" y="-246" type="curve" smooth="yes"/>
      <point x="64" y="-246"/>
      <point x="-2" y="-208"/>
      <point x="-2" y="-151" type="curve" smooth="yes"/>
      <point x="-2.0" y="-88.41176470588235"/>
      <point x="39.265515018269895" y="-58.013233963634775"/>
      <point x="151" y="-56" type="curve"/>
      <point x="153" y="-64" type="line"/>
      <point x="148.01002376500762" y="-68.98997623499238"/>
      <point x="143.0" y="-84.55555555555556"/>
      <point x="143" y="-101" type="curve" smooth="yes"/>
      <point x="143" y="-149"/>
      <point x="187" y="-179"/>
      <point x="263" y="-179" type="curve" smooth="yes"/>
      <point x="340.0" y="-179.0"/>
      <point x="361.0" y="-159.9090909090909"/>
      <point x="361" y="-129" type="curve" smooth="yes"/>
      <point x="361.0" y="-98.08333333333333"/>
      <point x="328.06398405744613" y="-84.00469607761073"/>
      <point x="219" y="-76" type="curve" smooth="yes"/>
      <point x="83" y="-69"/>
      <point x="36" y="-42"/>
      <point x="36" y="21" type="curve" smooth="yes"/>
      <point x="36" y="81"/>
      <point x="91" y="116"/>
      <point x="220" y="117" type="curve"/>
      <point x="225" y="110" type="line"/>
      <point x="215" y="105"/>
      <point x="210" y="98"/>
      <point x="210" y="88" type="curve" smooth="yes"/>
      <point x="210" y="74"/>
      <point x="229" y="66"/>
    </contour>
    <contour>
      <point x="298" y="432" type="line" smooth="yes"/>
      <point x="309" y="465" type="line" smooth="yes"/>
      <point x="339" y="552"/>
      <point x="394" y="594"/>
      <point x="456" y="594" type="curve" smooth="yes"/>
      <point x="509" y="594"/>
      <point x="539" y="566"/>
      <point x="539" y="511" type="curve" smooth="yes"/>
      <point x="539" y="456"/>
      <point x="510" y="433"/>
      <point x="463" y="433" type="curve" smooth="yes"/>
      <point x="429" y="433"/>
      <point x="412" y="465"/>
      <point x="378" y="465" type="curve" smooth="yes"/>
      <point x="360" y="465"/>
      <point x="350" y="456"/>
      <point x="339" y="428" type="curve"/>
    </contour>
    <contour>
      <point x="494" y="286" type="curve" smooth="yes"/>
      <point x="494" y="185"/>
      <point x="394" y="106"/>
      <point x="259" y="106" type="curve" smooth="yes"/>
      <point x="103" y="106"/>
      <point x="9" y="183"/>
      <point x="9" y="272" type="curve" smooth="yes"/>
      <point x="9" y="376"/>
      <point x="105" y="456"/>
      <point x="261" y="456" type="curve" smooth="yes"/>
      <point x="412" y="456"/>
      <point x="494" y="373"/>
    </contour>
    <contour>
      <point x="235" y="395" type="curve" smooth="yes"/>
      <point x="211" y="395"/>
      <point x="195" y="371"/>
      <point x="195" y="333" type="curve" smooth="yes"/>
      <point x="195" y="226"/>
      <point x="227" y="166"/>
      <point x="258" y="166" type="curve" smooth="yes"/>
      <point x="286" y="166"/>
      <point x="300" y="185"/>
      <point x="300" y="231" type="curve" smooth="yes"/>
      <point x="300" y="330"/>
      <point x="271" y="395"/>
    </contour>
  </outline>
</glyph>
<glyph name="h" format="2">
  <advance width="590"/>
  <unicode hex="0068"/>
  <outline>
    <contour>
      <point x="231" y="299" type="line" smooth="yes"/>
      <point x="247" y="315" type="line" smooth="yes"/>
      <point x="262" y="329"/>
      <point x="277" y="337"/>
      <point x="293" y="337" type="curve" smooth="yes"/>
      <point x="321" y="337"/>
      <point x="339" y="316"/>
      <point x="342" y="278" type="curve" smooth="yes"/>
      <point x="356" y="113" type="line" smooth="yes"/>
      <point x="359" y="84"/>
      <point x="351" y="69"/>
      <point x="340" y="62" type="curve" smooth="yes"/>
      <point x="331" y="57" type="line" smooth="yes"/>
      <point x="315" y="47"/>
      <point x="311" y="41"/>
      <point x="311" y="29" type="curve" smooth="yes"/>
      <point x="311" y="9"/>
      <point x="320" y="0"/>
      <point x="339" y="0" type="curve" smooth="yes"/>
      <point x="559" y="0" type="line" smooth="yes"/>
      <point x="577" y="0"/>
      <point x="589" y="9"/>
      <point x="589" y="28" type="curve" smooth="yes"/>
      <point x="589" y="44"/>
      <point x="586" y="52"/>
      <point x="577" y="57" type="curve" smooth="yes"/>
      <point x="570" y="62" type="line" smooth="yes"/>
      <point x="561" y="69"/>
      <point x="555" y="73"/>
      <point x="553" y="102" type="curve" smooth="yes"/>
      <point x="530" y="331" type="line" smooth="yes"/>
      <point x="522" y="415"/>
      <point x="470" y="457"/>
      <point x="407" y="457" type="curve" smooth="yes"/>
      <point x="354" y="457"/>
      <point x="298" y="426"/>
      <point x="224" y="351" type="curve" smooth="yes"/>
      <point x="204" y="330" type="line"/>
    </contour>
    <component base="l"/>
  </outline>
</glyph>
<glyph name="k" format="2">
  <advance width="626"/>
  <unicode hex="006B"/>
  <outline>
    <contour>
      <point x="408" y="357" type="line"/>
      <point x="571" y="117" type="line" smooth="yes"/>
      <point x="581" y="104"/>
      <point x="596" y="95"/>
      <point x="597" y="87" type="curve" smooth="yes"/>
      <point x="611" y="75"/>
      <point x="617" y="57"/>
      <point x="617" y="38" type="curve" smooth="yes"/>
      <point x="617" y="16"/>
      <point x="596" y="0"/>
      <point x="563" y="0" type="curve" smooth="yes"/>
      <point x="382" y="0" type="line" smooth="yes"/>
      <point x="369" y="0"/>
      <point x="360" y="13"/>
      <point x="360" y="34" type="curve" smooth="yes"/>
      <point x="360" y="50"/>
      <point x="369" y="56"/>
      <point x="374" y="71" type="curve" smooth="yes"/>
      <point x="378" y="82"/>
      <point x="383" y="95"/>
      <point x="383" y="102" type="curve" smooth="yes"/>
      <point x="383" y="109"/>
      <point x="380" y="114"/>
      <point x="377" y="120" type="curve" smooth="yes"/>
      <point x="298" y="248" type="line"/>
    </contour>
    <contour>
      <point x="216" y="219" type="line"/>
      <point x="387" y="336" type="line" smooth="yes"/>
      <point x="404" y="348"/>
      <point x="400" y="363"/>
      <point x="400" y="374" type="curve" smooth="yes"/>
      <point x="400" y="388"/>
      <point x="393" y="391"/>
      <point x="375" y="400" type="curve" smooth="yes"/>
      <point x="361" y="411"/>
      <point x="356" y="424"/>
      <point x="356" y="443" type="curve" smooth="yes"/>
      <point x="356" y="463"/>
      <point x="369" y="471"/>
      <point x="389" y="471" type="curve" smooth="yes"/>
      <point x="615" y="471" type="line" smooth="yes"/>
      <point x="626" y="471"/>
      <point x="638" y="456"/>
      <point x="638" y="436" type="curve" smooth="yes"/>
      <point x="638" y="415"/>
      <point x="628" y="401"/>
      <point x="586" y="388" type="curve" smooth="yes"/>
      <point x="560" y="381"/>
      <point x="533" y="354"/>
      <point x="486" y="316" type="curve" smooth="yes"/>
      <point x="282" y="160" type="line"/>
    </contour>
    <component base="l"/>
  </outline>
</glyph>
<glyph name="l" format="2">
  <advance width="296"/>
  <unicode hex="006C"/>
  <outline>
    <contour>
      <point x="243" y="678" type="line" smooth="yes"/>
      <point x="243.0" y="696.0"/>
      <point x="233" y="711"/>
      <point x="215" y="711" type="curve" smooth="yes"/>
      <point x="197" y="711"/>
      <point x="185" y="703"/>
      <point x="160" y="696" type="curve" smooth="yes"/>
      <point x="29" y="658" type="line" smooth="yes"/>
      <point x="9" y="652"/>
      <point x="2" y="640"/>
      <point x="2" y="626" type="curve" smooth="yes"/>
      <point x="2" y="611"/>
      <point x="8" y="602"/>
      <point x="24" y="599" type="curve" smooth="yes"/>
      <point x="34" y="597" type="line" smooth="yes"/>
      <point x="47" y="594"/>
      <point x="53.0" y="586.0"/>
      <point x="53" y="565" type="curve" smooth="yes"/>
      <point x="53" y="98" type="line" smooth="yes"/>
      <point x="53" y="77"/>
      <point x="47" y="69"/>
      <point x="37" y="64" type="curve" smooth="yes"/>
      <point x="27" y="60" type="line" smooth="yes"/>
      <point x="13" y="53"/>
      <point x="6" y="44"/>
      <point x="6" y="30" type="curve" smooth="yes"/>
      <point x="6" y="11"/>
      <point x="18" y="0"/>
      <point x="39" y="0" type="curve" smooth="yes"/>
      <point x="254" y="0" type="line" smooth="yes"/>
      <point x="276" y="0"/>
      <point x="289" y="9"/>
      <point x="289" y="29" type="curve" smooth="yes"/>
      <point x="289" y="42"/>
      <point x="284" y="51"/>
      <point x="269" y="59" type="curve" smooth="yes"/>
      <point x="260" y="62" type="line" smooth="yes"/>
      <point x="249" y="68"/>
      <point x="243" y="80"/>
      <point x="243" y="106" type="curve" smooth="yes"/>
    </contour>
  </outline>
</glyph>
<glyph name="m" format="2">
  <advance width="898"/>
  <unicode hex="006D"/>
  <outline>
    <contour>
      <point x="232" y="299" type="line" smooth="yes"/>
      <point x="248" y="314" type="line" smooth="yes"/>
      <point x="268" y="332"/>
      <point x="289" y="337"/>
      <point x="309" y="337" type="curve" smooth="yes"/>
      <point x="338" y="337"/>
      <point x="359" y="313"/>
      <point x="359" y="271" type="curve" smooth="yes"/>
      <point x="359" y="113" type="line" smooth="yes"/>
      <point x="359" y="83"/>
      <point x="353" y="69"/>
      <point x="343" y="62" type="curve" smooth="yes"/>
      <point x="334" y="57" type="line" smooth="yes"/>
      <point x="319" y="46"/>
      <point x="314" y="41"/>
      <point x="314" y="29" type="curve" smooth="yes"/>
      <point x="314" y="9"/>
      <point x="322" y="0"/>
      <point x="342" y="0" type="curve" smooth="yes"/>
      <point x="556" y="0" type="line" smooth="yes"/>
      <point x="574" y="0"/>
      <point x="587" y="10"/>
      <point x="587" y="28" type="curve" smooth="yes"/>
      <point x="587" y="44"/>
      <point x="582" y="52"/>
      <point x="573" y="58" type="curve" smooth="yes"/>
      <point x="567" y="62" type="line" smooth="yes"/>
      <point x="557" y="69"/>
      <point x="549" y="73"/>
      <point x="549" y="101" type="curve" smooth="yes"/>
      <point x="549" y="318" type="line" smooth="yes"/>
      <point x="549" y="411"/>
      <point x="489" y="457"/>
      <point x="422" y="457" type="curve" smooth="yes"/>
      <point x="369" y="457"/>
      <point x="308" y="429"/>
      <point x="226" y="350" type="curve" smooth="yes"/>
      <point x="205" y="330" type="line"/>
    </contour>
    <contour>
      <point x="537" y="299" type="line" smooth="yes"/>
      <point x="553" y="315" type="line" smooth="yes"/>
      <point x="569" y="329"/>
      <point x="583" y="337"/>
      <point x="599" y="337" type="curve" smooth="yes"/>
      <point x="626" y="337"/>
      <point x="645" y="316"/>
      <point x="648" y="278" type="curve" smooth="yes"/>
      <point x="662" y="113" type="line" smooth="yes"/>
      <point x="665" y="84"/>
      <point x="656" y="69"/>
      <point x="646" y="62" type="curve" smooth="yes"/>
      <point x="636" y="57" type="line" smooth="yes"/>
      <point x="620" y="47"/>
      <point x="617" y="41"/>
      <point x="617" y="29" type="curve" smooth="yes"/>
      <point x="617" y="9"/>
      <point x="625" y="0"/>
      <point x="645" y="0" type="curve" smooth="yes"/>
      <point x="865" y="0" type="line" smooth="yes"/>
      <point x="883" y="0"/>
      <point x="895" y="9"/>
      <point x="895" y="28" type="curve" smooth="yes"/>
      <point x="895" y="44"/>
      <point x="891" y="52"/>
      <point x="883" y="57" type="curve" smooth="yes"/>
      <point x="876" y="62" type="line" smooth="yes"/>
      <point x="867" y="69"/>
      <point x="860" y="73"/>
      <point x="858" y="102" type="curve" smooth="yes"/>
      <point x="836" y="331" type="line" smooth="yes"/>
      <point x="827" y="415"/>
      <point x="776" y="457"/>
      <point x="713" y="457" type="curve" smooth="yes"/>
      <point x="660" y="457"/>
      <point x="603" y="426"/>
      <point x="529" y="351" type="curve" smooth="yes"/>
      <point x="509" y="330" type="line"/>
    </contour>
    <component base="dotlessi"/>
  </outline>
</glyph>
<glyph name="n" format="2">
  <advance width="591"/>
  <unicode hex="006E"/>
  <outline>
    <contour>
      <point x="232" y="299" type="line" smooth="yes"/>
      <point x="248" y="315" type="line" smooth="yes"/>
      <point x="263" y="329"/>
      <point x="277" y="337"/>
      <point x="294" y="337" type="curve" smooth="yes"/>
      <point x="321" y="337"/>
      <point x="340" y="316"/>
      <point x="343" y="278" type="curve" smooth="yes"/>
      <point x="357" y="113" type="line" smooth="yes"/>
      <point x="359" y="84"/>
      <point x="351" y="69"/>
      <point x="341" y="62" type="curve" smooth="yes"/>
      <point x="331" y="57" type="line" smooth="yes"/>
      <point x="315" y="47"/>
      <point x="311" y="41"/>
      <point x="311" y="29" type="curve" smooth="yes"/>
      <point x="311" y="9"/>
      <point x="320" y="0"/>
      <point x="340" y="0" type="curve" smooth="yes"/>
      <point x="560" y="0" type="line" smooth="yes"/>
      <point x="578" y="0"/>
      <point x="590" y="9"/>
      <point x="590" y="28" type="curve" smooth="yes"/>
      <point x="590" y="44"/>
      <point x="585" y="52"/>
      <point x="578" y="57" type="curve" smooth="yes"/>
      <point x="570" y="62" type="line" smooth="yes"/>
      <point x="562" y="69"/>
      <point x="555" y="73"/>
      <point x="552" y="102" type="curve" smooth="yes"/>
      <point x="530" y="331" type="line" smooth="yes"/>
      <point x="522" y="415"/>
      <point x="470" y="457"/>
      <point x="407" y="457" type="curve" smooth="yes"/>
      <point x="355" y="457"/>
      <point x="297" y="426"/>
      <point x="224" y="351" type="curve" smooth="yes"/>
      <point x="204" y="330" type="line"/>
    </contour>
    <component base="dotlessi"/>
  </outline>
</glyph>
<glyph name="o" format="2">
  <advance width="525"/>
  <unicode hex="006F"/>
  <outline>
    <contour>
      <point x="266" y="458" type="curve" smooth="yes"/>
      <point x="120" y="458"/>
      <point x="6" y="348"/>
      <point x="6" y="226" type="curve" smooth="yes"/>
      <point x="6" y="83"/>
      <point x="107" y="-11"/>
      <point x="259" y="-11" type="curve" smooth="yes"/>
      <point x="406" y="-11"/>
      <point x="518" y="89"/>
      <point x="518" y="226" type="curve" smooth="yes"/>
      <point x="518" y="363"/>
      <point x="418" y="458"/>
    </contour>
    <contour>
      <point x="287" y="68" type="curve" smooth="yes"/>
      <point x="250" y="68"/>
      <point x="202" y="169"/>
      <point x="202" y="313" type="curve" smooth="yes"/>
      <point x="202" y="359"/>
      <point x="216" y="380"/>
      <point x="239" y="380" type="curve" smooth="yes"/>
      <point x="273" y="380"/>
      <point x="326" y="275"/>
      <point x="326" y="131" type="curve" smooth="yes"/>
      <point x="326" y="86"/>
      <point x="314" y="68"/>
    </contour>
  </outline>
</glyph>
<glyph name="p" format="2">
  <advance width="610"/>
  <unicode hex="0070"/>
  <outline>
    <contour>
      <point x="268" y="423" type="line" smooth="yes"/>
      <point x="268" y="463"/>
      <point x="253" y="486"/>
      <point x="230" y="486" type="curve" smooth="yes"/>
      <point x="207" y="486"/>
      <point x="186" y="473"/>
      <point x="154" y="462" type="curve" smooth="yes"/>
      <point x="25" y="419" type="line" smooth="yes"/>
      <point x="7" y="412"/>
      <point x="0" y="400"/>
      <point x="0" y="385" type="curve" smooth="yes"/>
      <point x="0" y="360"/>
      <point x="14" y="343"/>
      <point x="40" y="343" type="curve" smooth="yes"/>
      <point x="45" y="343" type="line" smooth="yes"/>
      <point x="60" y="343"/>
      <point x="69" y="330"/>
      <point x="69" y="296" type="curve" smooth="yes"/>
      <point x="69" y="-124" type="line" smooth="yes"/>
      <point x="69" y="-141"/>
      <point x="61" y="-153"/>
      <point x="46" y="-162" type="curve" smooth="yes"/>
      <point x="41" y="-168" type="line" smooth="yes"/>
      <point x="19" y="-178"/>
      <point x="1" y="-181"/>
      <point x="1" y="-205" type="curve" smooth="yes"/>
      <point x="1" y="-227"/>
      <point x="13" y="-241"/>
      <point x="44" y="-241" type="curve" smooth="yes"/>
      <point x="315" y="-241" type="line" smooth="yes"/>
      <point x="341" y="-241"/>
      <point x="353" y="-227"/>
      <point x="353" y="-206" type="curve" smooth="yes"/>
      <point x="353" y="-184"/>
      <point x="339" y="-181"/>
      <point x="316" y="-171" type="curve" smooth="yes"/>
      <point x="302" y="-164" type="line" smooth="yes"/>
      <point x="282" y="-151"/>
      <point x="268" y="-148"/>
      <point x="268" y="-122" type="curve" smooth="yes"/>
    </contour>
    <contour>
      <point x="168" y="316" type="line"/>
      <point x="198" y="346"/>
      <point x="251" y="364"/>
      <point x="309" y="364" type="curve" smooth="yes"/>
      <point x="377" y="364"/>
      <point x="399" y="289"/>
      <point x="399" y="222" type="curve" smooth="yes"/>
      <point x="399" y="159"/>
      <point x="362" y="92"/>
      <point x="283" y="92" type="curve" smooth="yes"/>
      <point x="245" y="92"/>
      <point x="199" y="102"/>
      <point x="177" y="138" type="curve"/>
      <point x="148" y="77" type="line"/>
      <point x="191" y="17"/>
      <point x="270" y="-13"/>
      <point x="341" y="-13" type="curve" smooth="yes"/>
      <point x="512" y="-13"/>
      <point x="607" y="100"/>
      <point x="607" y="256" type="curve" smooth="yes"/>
      <point x="607" y="383"/>
      <point x="522" y="486"/>
      <point x="374" y="486" type="curve" smooth="yes"/>
      <point x="290" y="486"/>
      <point x="205" y="431"/>
      <point x="152" y="376" type="curve"/>
    </contour>
  </outline>
</glyph>
<glyph name="q" format="2">
  <advance width="558"/>
  <unicode hex="0071"/>
  <outline>
    <contour>
      <point x="540" y="-120" type="curve" smooth="yes"/>
      <point x="540" y="436" type="line" smooth="yes"/>
      <point x="540" y="470"/>
      <point x="525" y="489"/>
      <point x="501" y="489" type="curve" smooth="yes"/>
      <point x="481" y="489"/>
      <point x="463" y="483"/>
      <point x="430" y="468" type="curve" smooth="yes"/>
      <point x="334" y="433" type="line" smooth="yes"/>
      <point x="334" y="-116" type="line" smooth="yes"/>
      <point x="334" y="-145"/>
      <point x="320" y="-154"/>
      <point x="295" y="-162" type="curve" smooth="yes"/>
      <point x="290" y="-166" type="line" smooth="yes"/>
      <point x="275" y="-171"/>
      <point x="258" y="-182"/>
      <point x="258" y="-206" type="curve" smooth="yes"/>
      <point x="258" y="-226"/>
      <point x="274" y="-241"/>
      <point x="292" y="-241" type="curve" smooth="yes"/>
      <point x="546" y="-241" type="line" smooth="yes"/>
      <point x="572" y="-241"/>
      <point x="580" y="-227"/>
      <point x="580" y="-205" type="curve" smooth="yes"/>
      <point x="579" y="-179"/>
      <point x="567" y="-174"/>
      <point x="557" y="-166" type="curve" smooth="yes"/>
      <point x="550" y="-160" type="line" smooth="yes"/>
      <point x="545" y="-156"/>
      <point x="540" y="-138"/>
    </contour>
    <contour>
      <point x="402" y="166" type="line"/>
      <point x="370" y="130"/>
      <point x="355" y="116"/>
      <point x="300" y="116" type="curve" smooth="yes"/>
      <point x="249" y="116"/>
      <point x="214" y="179"/>
      <point x="214" y="255" type="curve" smooth="yes"/>
      <point x="214" y="338"/>
      <point x="261" y="385"/>
      <point x="334" y="385" type="curve" smooth="yes"/>
      <point x="371" y="385"/>
      <point x="397" y="359"/>
      <point x="418" y="323" type="curve"/>
      <point x="453" y="416" type="line"/>
      <point x="414" y="468"/>
      <point x="352" y="486"/>
      <point x="270" y="486" type="curve" smooth="yes"/>
      <point x="120" y="486"/>
      <point x="3" y="381"/>
      <point x="3" y="218" type="curve" smooth="yes"/>
      <point x="3" y="83"/>
      <point x="104" y="-13"/>
      <point x="228" y="-13" type="curve" smooth="yes"/>
      <point x="311" y="-13"/>
      <point x="365" y="22"/>
      <point x="436" y="96" type="curve"/>
    </contour>
  </outline>
</glyph>
<glyph name="r" format="2">
  <advance width="468"/>
  <unicode hex="0072"/>
  <outline>
    <contour>
      <point x="232" y="248" type="curve"/>
      <point x="250" y="248" type="line"/>
      <point x="250" y="303"/>
      <point x="262" y="338"/>
      <point x="283" y="338" type="curve" smooth="yes"/>
      <point x="294" y="338"/>
      <point x="302" y="331"/>
      <point x="302" y="316" type="curve" smooth="yes"/>
      <point x="302" y="295" type="line" smooth="yes"/>
      <point x="302" y="253"/>
      <point x="327" y="227"/>
      <point x="371" y="227" type="curve" smooth="yes"/>
      <point x="428" y="227"/>
      <point x="466" y="259"/>
      <point x="466" y="334" type="curve" smooth="yes"/>
      <point x="466" y="415"/>
      <point x="433" y="457"/>
      <point x="373" y="457" type="curve" smooth="yes"/>
      <point x="291" y="457"/>
      <point x="232" y="386"/>
    </contour>
    <contour>
      <point x="242" y="419" type="line" smooth="yes"/>
      <point x="239" y="441"/>
      <point x="232" y="456"/>
      <point x="215" y="456" type="curve" smooth="yes"/>
      <point x="199" y="456"/>
      <point x="188" y="451"/>
      <point x="166" y="444" type="curve" smooth="yes"/>
      <point x="36" y="402" type="line" smooth="yes"/>
      <point x="19" y="398"/>
      <point x="10" y="385"/>
      <point x="10" y="370" type="curve" smooth="yes"/>
      <point x="10" y="354"/>
      <point x="18" y="346"/>
      <point x="37" y="342" type="curve" smooth="yes"/>
      <point x="47" y="341" type="line" smooth="yes"/>
      <point x="57" y="340"/>
      <point x="63" y="333"/>
      <point x="63" y="315" type="curve" smooth="yes"/>
      <point x="63" y="107" type="line" smooth="yes"/>
      <point x="63" y="90"/>
      <point x="54" y="75"/>
      <point x="39" y="67" type="curve" smooth="yes"/>
      <point x="24" y="59" type="line" smooth="yes"/>
      <point x="12" y="53"/>
      <point x="5" y="42"/>
      <point x="5" y="27" type="curve" smooth="yes"/>
      <point x="5" y="10"/>
      <point x="15" y="0"/>
      <point x="34" y="0" type="curve" smooth="yes"/>
      <point x="319" y="0" type="line" smooth="yes"/>
      <point x="336" y="0"/>
      <point x="348" y="9"/>
      <point x="348" y="28" type="curve" smooth="yes"/>
      <point x="348" y="47"/>
      <point x="339" y="56"/>
      <point x="317" y="65" type="curve" smooth="yes"/>
      <point x="283" y="76" type="line" smooth="yes"/>
      <point x="259" y="85"/>
      <point x="250" y="106"/>
      <point x="250" y="127" type="curve" smooth="yes"/>
      <point x="250" y="312" type="line"/>
    </contour>
  </outline>
</glyph>
<glyph name="s" format="2">
  <advance width="452"/>
  <unicode hex="0073"/>
  <outline>
    <contour>
      <point x="225" y="43" type="curve" smooth="yes"/>
      <point x="179" y="43"/>
      <point x="135" y="72"/>
      <point x="96" y="126" type="curve" smooth="yes"/>
      <point x="80" y="145"/>
      <point x="61" y="155"/>
      <point x="45" y="151" type="curve" smooth="yes"/>
      <point x="25" y="145"/>
      <point x="21" y="120"/>
      <point x="27" y="94" type="curve" smooth="yes"/>
      <point x="41" y="21" type="line" smooth="yes"/>
      <point x="47" y="-4"/>
      <point x="59" y="-13"/>
      <point x="72" y="-13" type="curve" smooth="yes"/>
      <point x="90" y="-13"/>
      <point x="116" y="10"/>
      <point x="132" y="10" type="curve" smooth="yes"/>
      <point x="139" y="10"/>
      <point x="169" y="-14"/>
      <point x="239" y="-14" type="curve" smooth="yes"/>
      <point x="352" y="-14"/>
      <point x="435" y="46"/>
      <point x="435" y="138" type="curve" smooth="yes"/>
      <point x="435" y="220"/>
      <point x="384" y="281"/>
      <point x="247" y="303" type="curve" smooth="yes"/>
      <point x="190" y="314"/>
      <point x="173" y="330"/>
      <point x="173" y="356" type="curve" smooth="yes"/>
      <point x="173" y="382"/>
      <point x="191" y="400"/>
      <point x="226" y="400" type="curve" smooth="yes"/>
      <point x="283" y="400"/>
      <point x="315" y="367"/>
      <point x="359" y="306" type="curve" smooth="yes"/>
      <point x="375" y="287"/>
      <point x="400" y="278"/>
      <point x="420" y="286" type="curve" smooth="yes"/>
      <point x="439" y="292"/>
      <point x="447" y="317"/>
      <point x="435" y="350" type="curve" smooth="yes"/>
      <point x="417" y="423" type="line" smooth="yes"/>
      <point x="409" y="447"/>
      <point x="396" y="456"/>
      <point x="381" y="456" type="curve" smooth="yes"/>
      <point x="363" y="456"/>
      <point x="341" y="434"/>
      <point x="322" y="434" type="curve" smooth="yes"/>
      <point x="306" y="434"/>
      <point x="274" y="455"/>
      <point x="214" y="455" type="curve" smooth="yes"/>
      <point x="83" y="455"/>
      <point x="16" y="397"/>
      <point x="16" y="299" type="curve" smooth="yes"/>
      <point x="16" y="216"/>
      <point x="70" y="160"/>
      <point x="223" y="124" type="curve" smooth="yes"/>
      <point x="261" y="115"/>
      <point x="277" y="99"/>
      <point x="277" y="79" type="curve" smooth="yes"/>
      <point x="277" y="59"/>
      <point x="260" y="43"/>
    </contour>
  </outline>
</glyph>
<glyph name="t" format="2">
  <advance width="379"/>
  <unicode hex="0074"/>
  <outline>
    <contour>
      <point x="37" y="372" type="line" smooth="yes"/>
      <point x="50" y="367"/>
      <point x="49.0" y="356.0"/>
      <point x="49" y="330" type="curve" smooth="yes"/>
      <point x="49" y="130" type="line" smooth="yes"/>
      <point x="49" y="31"/>
      <point x="104" y="-15"/>
      <point x="208" y="-15" type="curve" smooth="yes"/>
      <point x="310" y="-15"/>
      <point x="372" y="37"/>
      <point x="376" y="116" type="curve" smooth="yes"/>
      <point x="376" y="133"/>
      <point x="368" y="143"/>
      <point x="357" y="142" type="curve" smooth="yes"/>
      <point x="341" y="129"/>
      <point x="322" y="97"/>
      <point x="289" y="97" type="curve" smooth="yes"/>
      <point x="256" y="97"/>
      <point x="234" y="122"/>
      <point x="234" y="171" type="curve" smooth="yes"/>
      <point x="234" y="526" type="line" smooth="yes"/>
      <point x="234" y="552"/>
      <point x="220" y="566"/>
      <point x="200" y="566" type="curve" smooth="yes"/>
      <point x="185" y="566"/>
      <point x="169" y="549"/>
      <point x="152" y="534" type="curve" smooth="yes"/>
      <point x="80" y="471" type="line" smooth="yes"/>
      <point x="65" y="457"/>
      <point x="57" y="448"/>
      <point x="49" y="448" type="curve" smooth="yes"/>
      <point x="32" y="448" type="line" smooth="yes"/>
      <point x="9" y="448"/>
      <point x="-4" y="437"/>
      <point x="-4" y="417" type="curve" smooth="yes"/>
      <point x="-4" y="403"/>
      <point x="1" y="386"/>
      <point x="21" y="378" type="curve" smooth="yes"/>
    </contour>
    <contour>
      <point x="175" y="367" type="line"/>
      <point x="303" y="367" type="line" smooth="yes"/>
      <point x="347" y="367"/>
      <point x="375" y="390"/>
      <point x="375" y="421" type="curve" smooth="yes"/>
      <point x="375" y="438"/>
      <point x="363" y="448"/>
      <point x="344" y="448" type="curve" smooth="yes"/>
      <point x="181" y="448" type="line"/>
    </contour>
  </outline>
</glyph>
<glyph name="u" format="2">
  <advance width="572"/>
  <unicode hex="0075"/>
  <anchor x="280" y="486" name="center"/>
  <outline>
    <contour>
      <point x="335" y="57" type="line" smooth="yes"/>
      <point x="335" y="26"/>
      <point x="365" y="-1"/>
      <point x="399" y="-1" type="curve" smooth="yes"/>
      <point x="539" y="-1" type="line" smooth="yes"/>
      <point x="561" y="-1"/>
      <point x="572" y="10"/>
      <point x="572" y="29" type="curve" smooth="yes"/>
      <point x="572" y="43"/>
      <point x="563" y="53"/>
      <point x="552" y="58" type="curve" smooth="yes"/>
      <point x="543" y="61" type="line" smooth="yes"/>
      <point x="531" y="66"/>
      <point x="526" y="78"/>
      <point x="526" y="102" type="curve" smooth="yes"/>
      <point x="526" y="422" type="line" smooth="yes"/>
      <point x="526" y="443"/>
      <point x="515" y="455"/>
      <point x="496" y="455" type="curve" smooth="yes"/>
      <point x="484" y="455"/>
      <point x="473" y="453"/>
      <point x="454" y="447" type="curve" smooth="yes"/>
      <point x="322" y="404" type="line" smooth="yes"/>
      <point x="306" y="399"/>
      <point x="291" y="389"/>
      <point x="291" y="376" type="curve" smooth="yes"/>
      <point x="291" y="365"/>
      <point x="301" y="355"/>
      <point x="311" y="348" type="curve" smooth="yes"/>
      <point x="321" y="347" type="line" smooth="yes"/>
      <point x="329" y="342"/>
      <point x="335" y="334"/>
      <point x="335" y="322" type="curve" smooth="yes"/>
    </contour>
    <contour>
      <point x="340" y="104" type="line" smooth="yes"/>
      <point x="332" y="95" type="line" smooth="yes"/>
      <point x="317" y="80"/>
      <point x="301" y="72"/>
      <point x="280" y="72" type="curve" smooth="yes"/>
      <point x="253" y="72"/>
      <point x="235" y="91"/>
      <point x="235" y="127" type="curve" smooth="yes"/>
      <point x="235" y="422" type="line" smooth="yes"/>
      <point x="235" y="442"/>
      <point x="227" y="455"/>
      <point x="209" y="455" type="curve" smooth="yes"/>
      <point x="197" y="455"/>
      <point x="186" y="453"/>
      <point x="159" y="444" type="curve" smooth="yes"/>
      <point x="34" y="406" type="line" smooth="yes"/>
      <point x="12" y="399"/>
      <point x="1" y="389"/>
      <point x="1" y="371" type="curve" smooth="yes"/>
      <point x="1" y="357"/>
      <point x="7" y="350"/>
      <point x="20" y="346" type="curve" smooth="yes"/>
      <point x="28" y="345" type="line" smooth="yes"/>
      <point x="39" y="342"/>
      <point x="43" y="334"/>
      <point x="43" y="320" type="curve" smooth="yes"/>
      <point x="43" y="122" type="line" smooth="yes"/>
      <point x="43" y="37"/>
      <point x="101" y="-14"/>
      <point x="179" y="-14" type="curve" smooth="yes"/>
      <point x="247" y="-14"/>
      <point x="285" y="2"/>
      <point x="345" y="58" type="curve" smooth="yes"/>
      <point x="353" y="67" type="line"/>
    </contour>
  </outline>
</glyph>
<glyph name="v" format="2">
  <advance width="513"/>
  <unicode hex="0076"/>
  <outline>
    <contour>
      <point x="304" y="-9" type="line" smooth="yes"/>
      <point x="326" y="-9"/>
      <point x="348" y="0"/>
      <point x="360" y="31" type="curve" smooth="yes"/>
      <point x="457" y="318" type="line" smooth="yes"/>
      <point x="468" y="348"/>
      <point x="480" y="360"/>
      <point x="490" y="369" type="curve" smooth="yes"/>
      <point x="508" y="384" type="line" smooth="yes"/>
      <point x="516" y="391"/>
      <point x="520" y="402"/>
      <point x="520" y="412" type="curve" smooth="yes"/>
      <point x="520" y="430"/>
      <point x="510" y="443"/>
      <point x="488" y="443" type="curve" smooth="yes"/>
      <point x="353" y="443" type="line" smooth="yes"/>
      <point x="337" y="443"/>
      <point x="326" y="432"/>
      <point x="326" y="416" type="curve" smooth="yes"/>
      <point x="326" y="399"/>
      <point x="333" y="387"/>
      <point x="348" y="381" type="curve" smooth="yes"/>
      <point x="371" y="372" type="line" smooth="yes"/>
      <point x="390" y="364"/>
      <point x="397" y="344"/>
      <point x="385" y="311" type="curve" smooth="yes"/>
      <point x="310" y="57" type="line" smooth="yes"/>
      <point x="324" y="58" type="line"/>
      <point x="246" y="323" type="line" smooth="yes"/>
      <point x="236" y="357"/>
      <point x="241" y="375"/>
      <point x="256" y="381" type="curve" smooth="yes"/>
      <point x="276" y="387" type="line" smooth="yes"/>
      <point x="290" y="392"/>
      <point x="300" y="402"/>
      <point x="300" y="416" type="curve" smooth="yes"/>
      <point x="300" y="431"/>
      <point x="291" y="443"/>
      <point x="272" y="443" type="curve" smooth="yes"/>
      <point x="24" y="443" type="line" smooth="yes"/>
      <point x="3" y="443"/>
      <point x="-8" y="432"/>
      <point x="-8" y="413" type="curve" smooth="yes"/>
      <point x="-8" y="400"/>
      <point x="-3" y="391"/>
      <point x="10" y="379" type="curve" smooth="yes"/>
      <point x="18" y="374" type="line" smooth="yes"/>
      <point x="26" y="367"/>
      <point x="31" y="358"/>
      <point x="36" y="344" type="curve" smooth="yes"/>
      <point x="144" y="35" type="line" smooth="yes"/>
      <point x="154" y="5"/>
      <point x="174" y="-9"/>
      <point x="199" y="-9" type="curve" smooth="yes"/>
    </contour>
  </outline>
</glyph>
<glyph name="w" format="2">
  <advance width="878"/>
  <unicode hex="0077"/>
  <outline>
    <contour>
      <point x="248" y="-10" type="curve" smooth="yes"/>
      <point x="329" y="-10" type="line" smooth="yes"/>
      <point x="367" y="-10"/>
      <point x="374" y="-2"/>
      <point x="388" y="26" type="curve" smooth="yes"/>
      <point x="521" y="306" type="line"/>
      <point x="445" y="352" type="line"/>
      <point x="310" y="59" type="line" smooth="yes"/>
      <point x="373" y="54" type="line"/>
      <point x="257" y="334" type="line" smooth="yes"/>
      <point x="252" y="348"/>
      <point x="246" y="357"/>
      <point x="246" y="369" type="curve" smooth="yes"/>
      <point x="246" y="381"/>
      <point x="256" y="389"/>
      <point x="275" y="393" type="curve" smooth="yes"/>
      <point x="300" y="400" type="line" smooth="yes"/>
      <point x="316" y="404"/>
      <point x="320" y="418"/>
      <point x="320" y="438" type="curve" smooth="yes"/>
      <point x="320" y="460"/>
      <point x="312" y="472"/>
      <point x="297" y="472" type="curve" smooth="yes"/>
      <point x="30" y="472" type="line" smooth="yes"/>
      <point x="11" y="472"/>
      <point x="5" y="456"/>
      <point x="5" y="433" type="curve" smooth="yes"/>
      <point x="5" y="417"/>
      <point x="10" y="400"/>
      <point x="27" y="389" type="curve" smooth="yes"/>
      <point x="39" y="384"/>
      <point x="50" y="372"/>
      <point x="58" y="354" type="curve" smooth="yes"/>
      <point x="188" y="41" type="line" smooth="yes"/>
      <point x="205" y="1"/>
      <point x="220" y="-10"/>
    </contour>
    <contour>
      <point x="640" y="-10" type="line" smooth="yes"/>
      <point x="669" y="-10"/>
      <point x="678" y="-3"/>
      <point x="689" y="22" type="curve" smooth="yes"/>
      <point x="815" y="322" type="line" smooth="yes"/>
      <point x="829" y="355"/>
      <point x="837" y="374"/>
      <point x="855" y="386" type="curve" smooth="yes"/>
      <point x="871" y="401"/>
      <point x="874" y="415"/>
      <point x="874" y="434" type="curve" smooth="yes"/>
      <point x="874" y="456"/>
      <point x="860" y="472"/>
      <point x="828" y="472" type="curve" smooth="yes"/>
      <point x="681" y="472" type="line" smooth="yes"/>
      <point x="657" y="472"/>
      <point x="644" y="460"/>
      <point x="644" y="437" type="curve" smooth="yes"/>
      <point x="644" y="415"/>
      <point x="660" y="411"/>
      <point x="682" y="390" type="curve" smooth="yes"/>
      <point x="691" y="372" type="line" smooth="yes"/>
      <point x="701" y="357"/>
      <point x="707" y="338"/>
      <point x="707" y="315" type="curve" smooth="yes"/>
      <point x="707" y="303"/>
      <point x="699" y="272"/>
      <point x="690" y="245" type="curve" smooth="yes"/>
      <point x="612" y="61" type="line" smooth="yes"/>
      <point x="698" y="55" type="line"/>
      <point x="587" y="302" type="line" smooth="yes"/>
      <point x="571" y="338"/>
      <point x="571" y="343"/>
      <point x="571" y="350" type="curve" smooth="yes"/>
      <point x="571" y="368"/>
      <point x="587" y="394"/>
      <point x="602" y="398" type="curve" smooth="yes"/>
      <point x="610" y="400" type="line" smooth="yes"/>
      <point x="624" y="405"/>
      <point x="628" y="419"/>
      <point x="628" y="437" type="curve" smooth="yes"/>
      <point x="628" y="460"/>
      <point x="613" y="472"/>
      <point x="586" y="472" type="curve" smooth="yes"/>
      <point x="368" y="472" type="line" smooth="yes"/>
      <point x="344" y="472"/>
      <point x="333" y="457"/>
      <point x="333" y="437" type="curve" smooth="yes"/>
      <point x="333" y="421"/>
      <point x="337" y="407"/>
      <point x="356" y="397" type="curve" smooth="yes"/>
      <point x="368" y="391"/>
      <point x="373" y="369"/>
      <point x="379" y="355" type="curve" smooth="yes"/>
      <point x="524" y="35" type="line" smooth="yes"/>
      <point x="541" y="-1"/>
      <point x="550" y="-10"/>
      <point x="572" y="-10" type="curve" smooth="yes"/>
    </contour>
  </outline>
</glyph>
<glyph name="x" format="2">
  <advance width="619"/>
  <unicode hex="0078"/>
  <outline>
    <contour>
      <point x="194" y="256" type="line"/>
      <point x="133" y="195" type="line" smooth="yes"/>
      <point x="111" y="171"/>
      <point x="82" y="138"/>
      <point x="55" y="129" type="curve" smooth="yes"/>
      <point x="17" y="113"/>
      <point x="7" y="85"/>
      <point x="7" y="61" type="curve" smooth="yes"/>
      <point x="7" y="22"/>
      <point x="27" y="0"/>
      <point x="56" y="0" type="curve" smooth="yes"/>
      <point x="191" y="0" type="line" smooth="yes"/>
      <point x="215" y="0"/>
      <point x="231" y="11"/>
      <point x="231" y="37" type="curve" smooth="yes"/>
      <point x="231" y="64"/>
      <point x="220" y="77"/>
      <point x="203" y="90" type="curve" smooth="yes"/>
      <point x="215" y="84" type="line" smooth="yes"/>
      <point x="207" y="91"/>
      <point x="202" y="105"/>
      <point x="202" y="121" type="curve" smooth="yes"/>
      <point x="202" y="131"/>
      <point x="207" y="150"/>
      <point x="214" y="160" type="curve" smooth="yes"/>
      <point x="251" y="198" type="line"/>
    </contour>
    <contour>
      <point x="340" y="339" type="line" smooth="yes"/>
      <point x="327" y="355"/>
      <point x="324" y="358"/>
      <point x="324" y="369" type="curve" smooth="yes"/>
      <point x="324" y="380"/>
      <point x="331" y="386"/>
      <point x="337" y="390" type="curve" smooth="yes"/>
      <point x="350" y="397" type="line" smooth="yes"/>
      <point x="362" y="406"/>
      <point x="368" y="416"/>
      <point x="368" y="437" type="curve" smooth="yes"/>
      <point x="368" y="460"/>
      <point x="352" y="470"/>
      <point x="327" y="470" type="curve" smooth="yes"/>
      <point x="51" y="470" type="line" smooth="yes"/>
      <point x="27" y="470"/>
      <point x="8" y="457"/>
      <point x="8" y="428" type="curve" smooth="yes"/>
      <point x="8" y="406"/>
      <point x="21" y="392"/>
      <point x="34" y="387" type="curve" smooth="yes"/>
      <point x="45" y="386"/>
      <point x="71" y="383"/>
      <point x="104" y="347" type="curve" smooth="yes"/>
      <point x="292" y="153" type="line" smooth="yes"/>
      <point x="318" y="124"/>
      <point x="306" y="110"/>
      <point x="306" y="105" type="curve" smooth="yes"/>
      <point x="306" y="91"/>
      <point x="293" y="79"/>
      <point x="284" y="73" type="curve" smooth="yes"/>
      <point x="280" y="73" type="line" smooth="yes"/>
      <point x="270" y="62"/>
      <point x="261" y="51"/>
      <point x="261" y="35" type="curve" smooth="yes"/>
      <point x="261" y="11"/>
      <point x="271" y="0"/>
      <point x="289" y="0" type="curve" smooth="yes"/>
      <point x="573" y="0" type="line" smooth="yes"/>
      <point x="602" y="0"/>
      <point x="614" y="15"/>
      <point x="614" y="38" type="curve" smooth="yes"/>
      <point x="614" y="54"/>
      <point x="606" y="71"/>
      <point x="592" y="76" type="curve" smooth="yes"/>
      <point x="572" y="85"/>
      <point x="575" y="92"/>
      <point x="551" y="118" type="curve" smooth="yes"/>
    </contour>
    <contour>
      <point x="407" y="178" type="line"/>
      <point x="489" y="286" type="line" smooth="yes"/>
      <point x="519" y="325"/>
      <point x="536" y="349"/>
      <point x="558" y="356" type="curve" smooth="yes"/>
      <point x="593" y="367"/>
      <point x="604" y="385"/>
      <point x="604" y="413" type="curve" smooth="yes"/>
      <point x="604" y="447"/>
      <point x="582" y="470"/>
      <point x="553" y="470" type="curve" smooth="yes"/>
      <point x="427" y="470" type="line" smooth="yes"/>
      <point x="400" y="470"/>
      <point x="385" y="460"/>
      <point x="385" y="438" type="curve" smooth="yes"/>
      <point x="385" y="420"/>
      <point x="382" y="403"/>
      <point x="404" y="391" type="curve" smooth="yes"/>
      <point x="395" y="395" type="line" smooth="yes"/>
      <point x="410" y="386"/>
      <point x="419" y="373"/>
      <point x="419" y="362" type="curve" smooth="yes"/>
      <point x="419" y="345"/>
      <point x="412" y="325"/>
      <point x="397" y="301" type="curve" smooth="yes"/>
      <point x="350" y="224" type="line"/>
    </contour>
  </outline>
</glyph>
<glyph name="y" format="2">
  <advance width="636"/>
  <unicode hex="0079"/>
  <anchor x="340" y="497" name="center"/>
  <outline>
    <contour>
      <point x="429" y="91" type="line"/>
      <point x="337" y="256" type="line" smooth="yes"/>
      <point x="320" y="290"/>
      <point x="318" y="302"/>
      <point x="318" y="313" type="curve" smooth="yes"/>
      <point x="318" y="340"/>
      <point x="335" y="360"/>
      <point x="344" y="371" type="curve" smooth="yes"/>
      <point x="341" y="376" type="line" smooth="yes"/>
      <point x="349" y="384"/>
      <point x="355" y="403"/>
      <point x="355" y="430" type="curve" smooth="yes"/>
      <point x="355" y="458"/>
      <point x="337" y="472"/>
      <point x="308" y="472" type="curve" smooth="yes"/>
      <point x="12" y="472" type="line" smooth="yes"/>
      <point x="-4" y="472"/>
      <point x="-13" y="454"/>
      <point x="-13" y="425" type="curve" smooth="yes"/>
      <point x="-13" y="404"/>
      <point x="0" y="389"/>
      <point x="28" y="376" type="curve" smooth="yes"/>
      <point x="48" y="368"/>
      <point x="56" y="357"/>
      <point x="68" y="334" type="curve" smooth="yes"/>
      <point x="311" y="-123" type="line"/>
    </contour>
    <contour>
      <point x="351" y="-1" type="line" smooth="yes"/>
      <point x="304" y="-114"/>
      <point x="283" y="-136"/>
      <point x="261" y="-136" type="curve" smooth="yes"/>
      <point x="242" y="-136"/>
      <point x="233" y="-124"/>
      <point x="232" y="-119" type="curve" smooth="yes"/>
      <point x="208" y="-66" type="line" smooth="yes"/>
      <point x="187" y="-16"/>
      <point x="159" y="10"/>
      <point x="104" y="10" type="curve" smooth="yes"/>
      <point x="62" y="10"/>
      <point x="21" y="-27"/>
      <point x="21" y="-105" type="curve" smooth="yes"/>
      <point x="21" y="-184"/>
      <point x="81" y="-245"/>
      <point x="181" y="-245" type="curve" smooth="yes"/>
      <point x="297" y="-245"/>
      <point x="371" y="-178"/>
      <point x="428" y="-31" type="curve" smooth="yes"/>
      <point x="520" y="215" type="line" smooth="yes"/>
      <point x="540" y="263"/>
      <point x="578" y="315"/>
      <point x="597" y="336" type="curve" smooth="yes"/>
      <point x="622" y="363"/>
      <point x="640" y="394"/>
      <point x="640" y="406" type="curve" smooth="yes"/>
      <point x="640" y="453"/>
      <point x="617" y="472"/>
      <point x="585" y="472" type="curve" smooth="yes"/>
      <point x="448" y="472" type="line" smooth="yes"/>
      <point x="418" y="472"/>
      <point x="405" y="451"/>
      <point x="405" y="430" type="curve" smooth="yes"/>
      <point x="405" y="403"/>
      <point x="417" y="393"/>
      <point x="432" y="369" type="curve" smooth="yes"/>
      <point x="431" y="359" type="line" smooth="yes"/>
      <point x="445" y="335"/>
      <point x="451" y="327"/>
      <point x="451" y="294" type="curve" smooth="yes"/>
      <point x="451" y="279"/>
      <point x="458" y="260"/>
      <point x="420" y="168" type="curve" smooth="yes"/>
    </contour>
  </outline>
</glyph>
<glyph name="z" format="2">
  <advance width="512"/>
  <unicode hex="007A"/>
  <anchor x="306" y="505" name="center"/>
  <outline>
    <contour>
      <point x="474" y="367" type="line" smooth="yes"/>
      <point x="495" y="390"/>
      <point x="504" y="407"/>
      <point x="504" y="427" type="curve" smooth="yes"/>
      <point x="504" y="457"/>
      <point x="483" y="472"/>
      <point x="442" y="472" type="curve" smooth="yes"/>
      <point x="163" y="472" type="line" smooth="yes"/>
      <point x="135" y="472"/>
      <point x="112" y="489"/>
      <point x="88" y="489" type="curve" smooth="yes"/>
      <point x="71" y="489"/>
      <point x="58" y="482"/>
      <point x="48" y="436" type="curve" smooth="yes"/>
      <point x="36" y="367" type="line" smooth="yes"/>
      <point x="32" y="348"/>
      <point x="28" y="334"/>
      <point x="28" y="317" type="curve" smooth="yes"/>
      <point x="28" y="295"/>
      <point x="46" y="280"/>
      <point x="64" y="280" type="curve" smooth="yes"/>
      <point x="85" y="280"/>
      <point x="94" y="293"/>
      <point x="116" y="322" type="curve" smooth="yes"/>
      <point x="121" y="330" type="line" smooth="yes"/>
      <point x="156" y="378"/>
      <point x="189" y="394"/>
      <point x="253" y="394" type="curve" smooth="yes"/>
      <point x="321" y="394" type="line"/>
      <point x="312" y="447" type="line"/>
      <point x="33" y="109" type="line" smooth="yes"/>
      <point x="25" y="99"/>
      <point x="12" y="79"/>
      <point x="12" y="54" type="curve" smooth="yes"/>
      <point x="12" y="26"/>
      <point x="40" y="-1"/>
      <point x="74" y="-1" type="curve" smooth="yes"/>
      <point x="336" y="-1" type="line" smooth="yes"/>
      <point x="373" y="-1"/>
      <point x="387" y="-14"/>
      <point x="403" y="-14" type="curve" smooth="yes"/>
      <point x="440" y="-14"/>
      <point x="464" y="-3"/>
      <point x="471" y="32" type="curve" smooth="yes"/>
      <point x="487" y="106" type="line" smooth="yes"/>
      <point x="495" y="138"/>
      <point x="497" y="154"/>
      <point x="497" y="170" type="curve" smooth="yes"/>
      <point x="497" y="195"/>
      <point x="483" y="210"/>
      <point x="461" y="210" type="curve" smooth="yes"/>
      <point x="442" y="210"/>
      <point x="428" y="195"/>
      <point x="413" y="168" type="curve" smooth="yes"/>
      <point x="413" y="167" type="line" smooth="yes"/>
      <point x="374" y="99"/>
      <point x="325" y="78"/>
      <point x="241" y="78" type="curve" smooth="yes"/>
      <point x="187" y="78" type="line"/>
      <point x="195" y="26" type="line"/>
    </contour>
  </outline>
</glyph>
<glyph name="dotlessi" format="2">
  <advance width="288"/>
  <unicode hex="0131"/>
  <outline>
    <contour>
      <point x="244" y="425" type="line" smooth="yes"/>
      <point x="244" y="444"/>
      <point x="233" y="457"/>
      <point x="217" y="457" type="curve" smooth="yes"/>
      <point x="198" y="457"/>
      <point x="185" y="452"/>
      <point x="160" y="444" type="curve" smooth="yes"/>
      <point x="29" y="402" type="line" smooth="yes"/>
      <point x="11" y="396"/>
      <point x="2" y="384"/>
      <point x="2" y="370" type="curve" smooth="yes"/>
      <point x="2" y="355"/>
      <point x="11" y="348"/>
      <point x="24" y="343" type="curve" smooth="yes"/>
      <point x="34" y="341" type="line" smooth="yes"/>
      <point x="46" y="337"/>
      <point x="53" y="330"/>
      <point x="53" y="308" type="curve" smooth="yes"/>
      <point x="53" y="98" type="line" smooth="yes"/>
      <point x="53" y="77"/>
      <point x="47" y="69"/>
      <point x="37" y="64" type="curve" smooth="yes"/>
      <point x="28" y="60" type="line" smooth="yes"/>
      <point x="14" y="53"/>
      <point x="6" y="44"/>
      <point x="6" y="30" type="curve" smooth="yes"/>
      <point x="6" y="11"/>
      <point x="18" y="0"/>
      <point x="39" y="0" type="curve" smooth="yes"/>
      <point x="254" y="0" type="line" smooth="yes"/>
      <point x="277" y="0"/>
      <point x="289" y="9"/>
      <point x="289" y="29" type="curve" smooth="yes"/>
      <point x="289" y="42"/>
      <point x="284" y="51"/>
      <point x="269" y="59" type="curve" smooth="yes"/>
      <point x="261" y="62" type="line" smooth="yes"/>
      <point x="249" y="68"/>
      <point x="244" y="80"/>
      <point x="244" y="106" type="curve" smooth="yes"/>
    </contour>
  </outline>
</glyph>
<glyph name="dotaccent" format="2">
  <advance width="263"/>
  <unicode hex="02D9"/>
  <outline>
    <contour>
      <point x="139" y="511" type="curve" smooth="yes"/>
      <point x="210" y="511"/>
      <point x="263" y="561"/>
      <point x="263" y="627" type="curve" smooth="yes"/>
      <point x="263" y="691"/>
      <point x="210" y="739"/>
      <point x="139" y="739" type="curve" smooth="yes"/>
      <point x="68" y="739"/>
      <point x="15" y="691"/>
      <point x="15" y="627" type="curve" smooth="yes"/>
      <point x="15" y="561"/>
      <point x="68" y="511"/>
    </contour>
  </outline>
</glyph>
<glyph name="ampersand.alt" format="2">
  <advance width="899"/>
  <outline>
    <contour>
      <point x="607" y="-14" type="curve" smooth="yes"/>
      <point x="479" y="-14"/>
      <point x="356" y="14"/>
      <point x="284" y="120" type="curve" smooth="yes"/>
      <point x="223" y="212"/>
      <point x="200" y="298"/>
      <point x="200" y="392" type="curve" smooth="yes"/>
      <point x="200" y="504"/>
      <point x="288" y="595"/>
      <point x="431" y="595" type="curve" smooth="yes"/>
      <point x="537" y="595"/>
      <point x="611" y="534"/>
      <point x="611" y="448" type="curve" smooth="yes"/>
      <point x="611" y="349"/>
      <point x="518" y="284"/>
      <point x="375" y="284" type="curve"/>
      <point x="367" y="340" type="line"/>
      <point x="410" y="340"/>
      <point x="441" y="390"/>
      <point x="441" y="467" type="curve" smooth="yes"/>
      <point x="441" y="503"/>
      <point x="433" y="527"/>
      <point x="419" y="527" type="curve" smooth="yes"/>
      <point x="399" y="527"/>
      <point x="389" y="488"/>
      <point x="389" y="405" type="curve" smooth="yes"/>
      <point x="389" y="343"/>
      <point x="421" y="256"/>
      <point x="487" y="165" type="curve" smooth="yes"/>
      <point x="531" y="103"/>
      <point x="575" y="83"/>
      <point x="625" y="83" type="curve" smooth="yes"/>
      <point x="729" y="83"/>
      <point x="809" y="144"/>
      <point x="809" y="272" type="curve" smooth="yes"/>
      <point x="809" y="388"/>
      <point x="761" y="482"/>
      <point x="676" y="564" type="curve" smooth="yes"/>
      <point x="603" y="633"/>
      <point x="509" y="663"/>
      <point x="397" y="663" type="curve" smooth="yes"/>
      <point x="234" y="663"/>
      <point x="116" y="617"/>
      <point x="116" y="545" type="curve" smooth="yes"/>
      <point x="116" y="523"/>
      <point x="126" y="510"/>
      <point x="149" y="491" type="curve" smooth="yes"/>
      <point x="174" y="467"/>
      <point x="192" y="443"/>
      <point x="192" y="409" type="curve" smooth="yes"/>
      <point x="192" y="350"/>
      <point x="148" y="309"/>
      <point x="85" y="309" type="curve" smooth="yes"/>
      <point x="16" y="309"/>
      <point x="-28" y="368"/>
      <point x="-28" y="456" type="curve" smooth="yes"/>
      <point x="-28" y="630"/>
      <point x="152" y="737"/>
      <point x="400" y="737" type="curve" smooth="yes"/>
      <point x="540" y="737"/>
      <point x="653" y="695"/>
      <point x="744" y="612" type="curve" smooth="yes"/>
      <point x="838" y="524"/>
      <point x="890" y="411"/>
      <point x="890" y="271" type="curve" smooth="yes"/>
      <point x="890" y="98"/>
      <point x="767" y="-14"/>
    </contour>
    <contour>
      <point x="467" y="100" type="line"/>
      <point x="559" y="133"/>
      <point x="588" y="186"/>
      <point x="588" y="221" type="curve" smooth="yes"/>
      <point x="588" y="262"/>
      <point x="566" y="279"/>
      <point x="566" y="316" type="curve" smooth="yes"/>
      <point x="566" y="360"/>
      <point x="609" y="398"/>
      <point x="665" y="398" type="curve" smooth="yes"/>
      <point x="720" y="398"/>
      <point x="766" y="354"/>
      <point x="766" y="279" type="curve" smooth="yes"/>
      <point x="766" y="186"/>
      <point x="684" y="118"/>
      <point x="483" y="44" type="curve"/>
    </contour>
    <contour>
      <point x="259" y="281" type="line"/>
      <point x="222" y="281"/>
      <point x="193" y="247"/>
      <point x="193" y="189" type="curve" smooth="yes"/>
      <point x="193" y="124"/>
      <point x="221" y="71"/>
      <point x="315" y="71" type="curve" smooth="yes"/>
      <point x="349" y="71"/>
      <point x="378" y="75"/>
      <point x="400" y="87" type="curve"/>
      <point x="432" y="26" type="line"/>
      <point x="374" y="-6"/>
      <point x="312" y="-14"/>
      <point x="233" y="-14" type="curve" smooth="yes"/>
      <point x="87" y="-14"/>
      <point x="-12" y="64"/>
      <point x="-12" y="178" type="curve" smooth="yes"/>
      <point x="-12" y="282"/>
      <point x="87" y="340"/>
      <point x="259" y="340" type="curve"/>
    </contour>
  </outline>
</glyph>
<glyph name="h.alt" format="2">
  <advance width="597"/>
  <outline>
    <contour>
      <point x="231" y="299" type="line" smooth="yes"/>
      <point x="247" y="314" type="line" smooth="yes"/>
      <point x="267" y="332"/>
      <point x="287" y="337"/>
      <point x="308" y="337" type="curve" smooth="yes"/>
      <point x="337" y="337"/>
      <point x="358" y="313"/>
      <point x="358" y="271" type="curve" smooth="yes"/>
      <point x="358" y="113" type="line" smooth="yes"/>
      <point x="358" y="83"/>
      <point x="352" y="69"/>
      <point x="342" y="62" type="curve" smooth="yes"/>
      <point x="333" y="57" type="line" smooth="yes"/>
      <point x="318" y="46"/>
      <point x="312" y="41"/>
      <point x="312" y="29" type="curve" smooth="yes"/>
      <point x="312" y="9"/>
      <point x="321" y="0"/>
      <point x="341" y="0" type="curve" smooth="yes"/>
      <point x="555" y="0" type="line" smooth="yes"/>
      <point x="572" y="0"/>
      <point x="586" y="10"/>
      <point x="586" y="28" type="curve" smooth="yes"/>
      <point x="586" y="44"/>
      <point x="581" y="52"/>
      <point x="572" y="58" type="curve" smooth="yes"/>
      <point x="565" y="62" type="line" smooth="yes"/>
      <point x="556" y="69"/>
      <point x="548" y="73"/>
      <point x="548" y="101" type="curve" smooth="yes"/>
      <point x="548" y="318" type="line" smooth="yes"/>
      <point x="548" y="411"/>
      <point x="488" y="457"/>
      <point x="421" y="457" type="curve" smooth="yes"/>
      <point x="368" y="457"/>
      <point x="306" y="429"/>
      <point x="225" y="350" type="curve" smooth="yes"/>
      <point x="204" y="330" type="line"/>
    </contour>
    <component base="l"/>
  </outline>
</glyph>
<glyph name="jdotless" format="2">
  <advance width="296"/>
  <anchor x="155" y="540" name="center"/>
  <outline>
    <contour>
      <point x="264" y="123" type="line" smooth="yes"/>
      <point x="264" y="69"/>
      <point x="327" y="10"/>
      <point x="327" y="-58" type="curve" smooth="yes"/>
      <point x="327" y="-170"/>
      <point x="246" y="-246"/>
      <point x="129" y="-246" type="curve" smooth="yes"/>
      <point x="24" y="-246"/>
      <point x="-50" y="-191"/>
      <point x="-50" y="-119" type="curve" smooth="yes"/>
      <point x="-50" y="-69"/>
      <point x="-16" y="-35"/>
      <point x="36" y="-35" type="curve" smooth="yes"/>
      <point x="86" y="-35"/>
      <point x="118" y="-73"/>
      <point x="118" y="-128" type="curve" smooth="yes"/>
      <point x="118" y="-148" type="line" smooth="yes"/>
      <point x="118" y="-167"/>
      <point x="128" y="-177"/>
      <point x="147" y="-177" type="curve" smooth="yes"/>
      <point x="175" y="-177"/>
      <point x="193" y="-155"/>
      <point x="193" y="-128" type="curve" smooth="yes"/>
      <point x="193" y="-63"/>
      <point x="66" y="-2"/>
      <point x="66" y="79" type="curve" smooth="yes"/>
      <point x="66" y="309" type="line" smooth="yes"/>
      <point x="66" y="333"/>
      <point x="60" y="342"/>
      <point x="51" y="342" type="curve" smooth="yes"/>
      <point x="31" y="342" type="line" smooth="yes"/>
      <point x="12" y="342"/>
      <point x="1" y="359"/>
      <point x="1" y="385" type="curve" smooth="yes"/>
      <point x="1" y="398"/>
      <point x="14" y="416"/>
      <point x="36" y="423" type="curve" smooth="yes"/>
      <point x="200" y="479" type="line" smooth="yes"/>
      <point x="214" y="483"/>
      <point x="225" y="486"/>
      <point x="235" y="486" type="curve" smooth="yes"/>
      <point x="252" y="486"/>
      <point x="264" y="475"/>
      <point x="264" y="458" type="curve" smooth="yes"/>
    </contour>
  </outline>
</glyph>
<glyph name="m.alt" format="2">
  <advance width="902"/>
  <outline>
    <contour>
      <point x="232" y="299" type="line" smooth="yes"/>
      <point x="248" y="314" type="line" smooth="yes"/>
      <point x="268" y="332"/>
      <point x="289" y="337"/>
      <point x="309" y="337" type="curve" smooth="yes"/>
      <point x="338" y="337"/>
      <point x="359" y="313"/>
      <point x="359" y="271" type="curve" smooth="yes"/>
      <point x="359" y="113" type="line" smooth="yes"/>
      <point x="359" y="83"/>
      <point x="353" y="69"/>
      <point x="343" y="62" type="curve" smooth="yes"/>
      <point x="334" y="57" type="line" smooth="yes"/>
      <point x="319" y="46"/>
      <point x="314" y="41"/>
      <point x="314" y="29" type="curve" smooth="yes"/>
      <point x="314" y="9"/>
      <point x="322" y="0"/>
      <point x="342" y="0" type="curve" smooth="yes"/>
      <point x="556" y="0" type="line" smooth="yes"/>
      <point x="574" y="0"/>
      <point x="587" y="10"/>
      <point x="587" y="28" type="curve" smooth="yes"/>
      <point x="587" y="44"/>
      <point x="582" y="52"/>
      <point x="573" y="58" type="curve" smooth="yes"/>
      <point x="567" y="62" type="line" smooth="yes"/>
      <point x="557" y="69"/>
      <point x="549" y="73"/>
      <point x="549" y="101" type="curve" smooth="yes"/>
      <point x="549" y="318" type="line" smooth="yes"/>
      <point x="549" y="411"/>
      <point x="489" y="457"/>
      <point x="422" y="457" type="curve" smooth="yes"/>
      <point x="369" y="457"/>
      <point x="308" y="429"/>
      <point x="226" y="350" type="curve" smooth="yes"/>
      <point x="205" y="330" type="line"/>
    </contour>
    <contour>
      <point x="537" y="299" type="line"/>
      <point x="553" y="314" type="line" smooth="yes"/>
      <point x="572" y="332"/>
      <point x="593" y="337"/>
      <point x="614" y="337" type="curve" smooth="yes"/>
      <point x="643" y="337"/>
      <point x="664" y="313"/>
      <point x="664" y="271" type="curve" smooth="yes"/>
      <point x="664" y="113" type="line" smooth="yes"/>
      <point x="664" y="83"/>
      <point x="658" y="69"/>
      <point x="648" y="62" type="curve" smooth="yes"/>
      <point x="638" y="57" type="line" smooth="yes"/>
      <point x="623" y="46"/>
      <point x="619" y="41"/>
      <point x="619" y="29" type="curve" smooth="yes"/>
      <point x="619" y="9"/>
      <point x="627" y="0"/>
      <point x="647" y="0" type="curve" smooth="yes"/>
      <point x="860" y="0" type="line" smooth="yes"/>
      <point x="878" y="0"/>
      <point x="891" y="10"/>
      <point x="891" y="28" type="curve" smooth="yes"/>
      <point x="891" y="44"/>
      <point x="886" y="52"/>
      <point x="878" y="58" type="curve" smooth="yes"/>
      <point x="871" y="62" type="line" smooth="yes"/>
      <point x="862" y="69"/>
      <point x="854" y="73"/>
      <point x="854" y="101" type="curve" smooth="yes"/>
      <point x="854" y="318" type="line" smooth="yes"/>
      <point x="854" y="411"/>
      <point x="793" y="457"/>
      <point x="727" y="457" type="curve" smooth="yes"/>
      <point x="674" y="457"/>
      <point x="613" y="429"/>
      <point x="530" y="350" type="curve" smooth="yes"/>
      <point x="509" y="330" type="line"/>
    </contour>
    <component base="dotlessi"/>
  </outline>
</glyph>
<glyph name="n.alt" format="2">
  <advance width="597"/>
  <outline>
    <contour>
      <point x="232" y="299" type="line" smooth="yes"/>
      <point x="248" y="314" type="line" smooth="yes"/>
      <point x="268" y="332"/>
      <point x="289" y="337"/>
      <point x="309" y="337" type="curve" smooth="yes"/>
      <point x="338" y="337"/>
      <point x="359" y="313"/>
      <point x="359" y="271" type="curve" smooth="yes"/>
      <point x="359" y="113" type="line" smooth="yes"/>
      <point x="359" y="83"/>
      <point x="353" y="69"/>
      <point x="343" y="62" type="curve" smooth="yes"/>
      <point x="334" y="57" type="line" smooth="yes"/>
      <point x="319" y="46"/>
      <point x="314" y="41"/>
      <point x="314" y="29" type="curve" smooth="yes"/>
      <point x="314" y="9"/>
      <point x="322" y="0"/>
      <point x="342" y="0" type="curve" smooth="yes"/>
      <point x="556" y="0" type="line" smooth="yes"/>
      <point x="574" y="0"/>
      <point x="587" y="10"/>
      <point x="587" y="28" type="curve" smooth="yes"/>
      <point x="587" y="44"/>
      <point x="582" y="52"/>
      <point x="573" y="58" type="curve" smooth="yes"/>
      <point x="567" y="62" type="line" smooth="yes"/>
      <point x="557" y="69"/>
      <point x="549" y="73"/>
      <point x="549" y="101" type="curve" smooth="yes"/>
      <point x="549" y="318" type="line" smooth="yes"/>
      <point x="549" y="411"/>
      <point x="489" y="457"/>
      <point x="422" y="457" type="curve" smooth="yes"/>
      <point x="369" y="457"/>
      <point x="308" y="429"/>
      <point x="226" y="350" type="curve" smooth="yes"/>
      <point x="205" y="330" type="line"/>
    </contour>
    <component base="dotlessi"/>
  </outline>
</glyph>
<glyph name="s.alt" format="2">
  <advance width="449"/>
  <outline>
    <contour>
      <point x="225" y="399" type="curve" smooth="yes"/>
      <point x="271" y="399"/>
      <point x="314" y="370"/>
      <point x="354" y="316" type="curve" smooth="yes"/>
      <point x="369" y="297"/>
      <point x="388" y="287"/>
      <point x="404" y="292" type="curve" smooth="yes"/>
      <point x="425" y="297"/>
      <point x="429" y="322"/>
      <point x="422" y="348" type="curve" smooth="yes"/>
      <point x="408" y="422" type="line" smooth="yes"/>
      <point x="402" y="446"/>
      <point x="390" y="455"/>
      <point x="377" y="455" type="curve" smooth="yes"/>
      <point x="360" y="455"/>
      <point x="334" y="433"/>
      <point x="318" y="433" type="curve" smooth="yes"/>
      <point x="311" y="433"/>
      <point x="281" y="456"/>
      <point x="212" y="456" type="curve" smooth="yes"/>
      <point x="102" y="456"/>
      <point x="22" y="396"/>
      <point x="22" y="304" type="curve" smooth="yes"/>
      <point x="22" y="222"/>
      <point x="72" y="161"/>
      <point x="209" y="139" type="curve" smooth="yes"/>
      <point x="267" y="129"/>
      <point x="284" y="112"/>
      <point x="284" y="86" type="curve" smooth="yes"/>
      <point x="284" y="60"/>
      <point x="266" y="42"/>
      <point x="231" y="42" type="curve" smooth="yes"/>
      <point x="174" y="42"/>
      <point x="142" y="75"/>
      <point x="97" y="136" type="curve" smooth="yes"/>
      <point x="81" y="156"/>
      <point x="55" y="164"/>
      <point x="36" y="156" type="curve" smooth="yes"/>
      <point x="18" y="150"/>
      <point x="8" y="125"/>
      <point x="21" y="92" type="curve" smooth="yes"/>
      <point x="39" y="19" type="line" smooth="yes"/>
      <point x="48" y="-5"/>
      <point x="61" y="-14"/>
      <point x="76" y="-14" type="curve" smooth="yes"/>
      <point x="94" y="-14"/>
      <point x="116" y="8"/>
      <point x="133" y="8" type="curve" smooth="yes"/>
      <point x="150" y="8"/>
      <point x="183" y="-13"/>
      <point x="243" y="-13" type="curve" smooth="yes"/>
      <point x="369" y="-13"/>
      <point x="434" y="46"/>
      <point x="434" y="143" type="curve" smooth="yes"/>
      <point x="434" y="226"/>
      <point x="382" y="282"/>
      <point x="227" y="318" type="curve" smooth="yes"/>
      <point x="189" y="327"/>
      <point x="173" y="344"/>
      <point x="173" y="363" type="curve" smooth="yes"/>
      <point x="173" y="384"/>
      <point x="190" y="399"/>
    </contour>
  </outline>
</glyph>
